{"glyphs":{"0":{"ha":739,"x_min":72,"x_max":666,"o":"m 597 463 q 597 567 597 463 q 541 777 597 672 q 368 881 486 881 q 196 777 251 881 q 141 461 141 673 q 197 147 141 250 q 370 44 253 44 q 541 149 486 44 q 597 463 597 253 m 72 467 q 72 586 72 467 q 145 822 72 706 q 366 938 218 938 q 590 818 514 938 q 666 460 666 697 q 592 105 666 222 q 370 -13 518 -13 q 147 108 223 -13 q 72 467 72 229 z "},"1":{"ha":739,"x_min":126,"x_max":431,"o":"m 431 924 l 431 0 l 369 0 l 369 673 q 376 863 369 770 l 357 845 q 161 692 346 836 l 126 736 l 376 924 l 431 924 z "},"2":{"ha":739,"x_min":72,"x_max":650,"o":"m 650 60 l 650 0 l 72 0 l 72 55 l 317 312 q 462 477 422 421 q 543 694 543 587 q 489 829 543 777 q 348 881 435 881 q 127 796 232 881 l 93 840 q 350 937 208 937 q 540 873 470 937 q 609 695 609 809 q 562 517 609 602 q 393 306 515 432 l 155 63 l 155 60 l 650 60 z "},"3":{"ha":739,"x_min":60,"x_max":647,"o":"m 352 937 q 549 877 480 937 q 619 706 619 817 q 565 562 619 621 q 420 487 510 503 l 420 483 q 589 412 532 469 q 647 259 647 355 q 559 58 647 128 q 305 -13 470 -13 q 60 40 164 -13 l 60 103 q 178 58 112 74 q 303 43 243 43 q 512 99 441 43 q 583 259 583 154 q 510 400 583 351 q 300 449 438 449 l 200 449 l 200 510 l 301 510 q 484 565 416 510 q 551 713 551 619 q 496 836 551 790 q 353 883 442 883 q 227 863 284 883 q 100 798 170 844 l 69 840 q 198 911 121 884 q 352 937 275 937 z "},"4":{"ha":739,"x_min":27,"x_max":721,"o":"m 502 290 l 502 554 q 511 875 502 750 l 506 875 q 428 756 495 854 l 103 290 l 502 290 m 721 290 l 721 236 l 562 236 l 562 0 l 502 0 l 502 236 l 27 236 l 27 278 l 485 929 l 562 929 l 562 290 l 721 290 z "},"5":{"ha":739,"x_min":91,"x_max":657,"o":"m 339 555 q 572 484 487 555 q 657 287 657 414 q 569 66 657 145 q 329 -13 481 -13 q 91 40 177 -13 l 91 105 q 212 56 159 70 q 325 43 264 43 q 520 107 447 43 q 593 277 593 171 q 522 442 593 383 q 327 501 451 501 q 155 477 246 501 l 117 501 l 154 924 l 599 924 l 599 863 l 213 863 l 185 537 q 339 555 285 555 z "},"6":{"ha":739,"x_min":83,"x_max":669,"o":"m 385 43 q 547 108 489 43 q 604 287 604 173 q 547 460 604 400 q 393 519 490 519 q 274 491 331 520 q 184 414 217 461 q 152 319 151 367 q 183 184 152 249 q 268 80 214 118 q 385 43 322 43 m 83 394 q 189 801 83 662 q 488 938 296 940 q 597 924 546 938 l 597 869 q 485 885 550 885 q 242 773 329 885 q 145 445 155 660 l 153 445 q 394 571 249 571 q 596 496 524 571 q 669 287 669 422 q 592 69 669 152 q 385 -13 515 -13 q 164 94 245 -13 q 83 394 83 201 z "},"7":{"ha":739,"x_min":69,"x_max":666,"o":"m 69 863 l 69 924 l 666 924 l 666 878 l 285 0 l 211 0 l 591 863 l 69 863 z "},"8":{"ha":739,"x_min":77,"x_max":660,"o":"m 355 463 q 190 364 238 418 q 141 225 141 310 q 200 92 141 140 q 364 44 259 44 q 532 95 469 44 q 595 229 595 147 q 546 361 595 312 q 355 463 496 409 m 512 838 q 367 883 458 883 q 223 839 277 883 q 169 718 169 795 q 189 640 169 673 q 246 579 209 607 q 373 515 286 551 q 520 602 475 555 q 565 722 565 650 q 512 838 565 794 m 628 717 q 584 592 628 646 q 440 492 539 537 q 610 382 560 442 q 660 238 660 322 q 580 55 660 124 q 363 -13 501 -13 q 151 51 225 -13 q 77 237 77 115 q 291 489 77 403 q 147 591 190 536 q 106 718 106 645 q 179 879 104 817 q 368 940 255 941 q 556 879 484 940 q 628 717 628 819 z "},"9":{"ha":739,"x_min":70,"x_max":655,"o":"m 249 40 q 494 153 406 40 q 593 482 583 266 l 585 482 q 476 389 539 421 q 342 356 412 356 q 141 427 213 356 q 70 633 70 498 q 149 853 70 767 q 353 938 228 938 q 573 831 491 941 q 654 532 655 721 q 549 123 655 261 q 247 -13 443 -15 q 126 4 183 -13 l 126 58 q 190 45 150 50 q 249 40 230 40 m 353 883 q 195 816 254 883 q 135 635 135 749 q 189 464 135 522 q 347 407 244 407 q 514 469 440 404 q 586 607 588 533 q 557 746 586 681 q 475 847 527 811 q 353 883 422 883 z "},"\r":{"ha":374,"x_min":0,"x_max":0,"o":""},"\u0000":{"ha":0,"x_min":0,"x_max":0,"o":""}," ":{"ha":374,"x_min":0,"x_max":0,"o":""},"!":{"ha":346,"x_min":122,"x_max":224,"o":"m 173 111 q 199 111 173 111 q 224 49 224 111 q 173 -13 224 -13 q 122 49 122 -13 q 173 111 122 111 m 211 924 l 192 238 l 154 238 l 136 924 l 211 924 z "},"\"":{"ha":555,"x_min":133,"x_max":422,"o":"m 133 924 l 213 924 l 192 591 l 154 591 l 133 924 m 342 924 l 422 924 l 401 591 l 362 591 l 342 924 z "},"#":{"ha":836,"x_min":34,"x_max":801,"o":"m 801 586 l 611 586 l 563 335 l 755 335 l 755 285 l 553 285 l 498 0 l 441 0 l 496 285 l 269 285 l 215 0 l 159 0 l 213 285 l 34 285 l 34 335 l 224 335 l 272 586 l 84 586 l 84 637 l 281 637 l 335 924 l 393 924 l 336 637 l 567 637 l 622 924 l 677 924 l 621 637 l 801 637 l 801 586 m 327 586 l 278 335 l 508 335 l 557 586 l 327 586 z "},"$":{"ha":739,"x_min":104,"x_max":626,"o":"m 390 498 q 575 407 525 457 q 626 276 626 357 q 564 141 626 195 q 390 74 502 88 l 390 -75 l 339 -75 l 339 72 q 212 85 278 73 q 104 117 143 99 l 104 183 q 218 144 155 159 q 339 128 282 128 l 339 449 q 203 505 247 477 q 139 571 159 533 q 119 663 119 609 q 178 795 119 741 q 339 861 238 848 l 339 982 l 390 982 l 390 862 q 612 817 513 856 l 591 760 q 390 805 501 799 l 390 498 m 390 132 q 513 179 468 140 q 557 276 557 218 q 517 369 557 334 q 390 430 477 404 l 390 132 m 226 754 q 207 736 226 754 q 187 663 187 717 q 223 574 187 609 q 339 515 259 539 l 339 801 q 226 754 265 791 z "},"%":{"ha":1045,"x_min":72,"x_max":973,"o":"m 789 510 q 700 453 729 510 q 672 277 672 395 q 789 43 672 43 q 911 276 911 43 q 789 510 911 510 m 609 279 q 609 349 609 279 q 656 492 609 418 q 790 565 702 565 q 925 489 877 565 q 973 274 973 414 q 927 60 973 134 q 792 -15 880 -15 q 657 62 704 -15 q 609 279 609 139 m 251 881 q 162 823 190 881 q 133 647 133 765 q 162 471 133 529 q 251 413 190 413 q 373 647 373 413 q 251 881 373 881 m 749 924 l 809 924 l 296 0 l 236 0 l 749 924 m 72 650 q 72 720 72 650 q 117 864 72 790 q 250 937 162 937 q 387 861 338 937 q 435 645 435 785 q 387 431 435 506 q 253 357 340 357 q 119 433 166 357 q 72 650 72 510 z "},"&":{"ha":923,"x_min":78,"x_max":894,"o":"m 78 235 q 124 383 78 322 q 298 513 170 444 l 250 565 q 168 743 168 653 q 228 885 168 832 q 389 938 288 938 q 546 887 489 938 q 603 746 603 836 q 559 624 603 680 q 399 501 515 569 l 685 212 q 798 439 759 301 l 858 439 q 726 169 818 284 l 894 0 l 809 0 l 687 124 q 583 41 631 70 q 359 -13 489 -13 q 153 52 230 -13 q 78 235 78 117 m 365 44 q 515 72 447 44 q 646 164 582 100 l 341 470 q 216 393 253 424 q 161 324 178 362 q 143 237 143 287 q 202 96 143 147 q 365 44 261 44 m 536 749 q 536 778 536 749 q 496 845 536 808 q 388 881 457 881 q 277 845 319 881 q 236 743 236 808 q 261 651 236 693 q 357 541 286 609 q 496 641 456 594 q 536 749 536 689 z "},"'":{"ha":347,"x_min":133,"x_max":213,"o":"m 133 924 l 213 924 l 192 591 l 154 591 l 133 924 z "},"(":{"ha":436,"x_min":66,"x_max":327,"o":"m 256 -135 q 115 116 164 -27 q 66 426 66 260 q 115 738 66 592 q 256 994 164 884 l 327 994 q 184 733 234 878 q 134 426 134 587 q 327 -135 134 121 l 256 -135 z "},")":{"ha":436,"x_min":109,"x_max":370,"o":"m 322 737 q 346 664 322 737 q 370 425 370 591 q 322 116 370 258 q 180 -135 273 -27 l 110 -135 q 302 426 302 121 q 252 734 302 588 q 109 994 202 880 l 180 994 q 322 737 273 883 z "},"*":{"ha":713,"x_min":66,"x_max":645,"o":"m 306 983 l 399 983 l 376 727 l 631 793 l 645 711 l 395 685 l 551 470 l 473 426 l 352 666 l 238 426 l 159 470 l 312 685 l 66 711 l 78 793 l 331 727 l 306 983 z "},"+":{"ha":739,"x_min":70,"x_max":669,"o":"m 395 757 l 395 483 l 669 483 l 669 431 l 395 431 l 395 158 l 343 158 l 343 431 l 70 431 l 70 483 l 343 483 l 343 757 l 395 757 z "},",":{"ha":278,"x_min":43,"x_max":194,"o":"m 112 150 l 186 150 l 194 137 q 84 -167 147 -29 l 43 -167 q 112 150 91 6 z "},"-":{"ha":557,"x_min":128,"x_max":428,"o":"m 428 359 l 128 359 l 128 411 l 428 411 l 428 359 z "},".":{"ha":308,"x_min":103,"x_max":205,"o":"m 153 -13 q 103 49 103 -13 q 153 111 103 111 q 205 49 205 111 q 153 -13 205 -13 z "},"/":{"ha":441,"x_min":15,"x_max":426,"o":"m 360 924 l 426 924 l 81 0 l 15 0 l 360 924 z "},":":{"ha":322,"x_min":117,"x_max":219,"o":"m 167 -13 q 117 49 117 -13 q 167 111 117 111 q 219 49 219 111 q 167 -13 219 -13 m 167 551 q 117 613 117 551 q 167 675 117 675 q 219 614 219 675 q 205 567 219 582 q 167 551 190 551 z "},";":{"ha":322,"x_min":62,"x_max":219,"o":"m 131 150 l 206 150 l 213 137 q 103 -167 166 -29 l 62 -167 q 101 -10 81 -100 q 131 150 121 79 m 167 551 q 117 613 117 551 q 167 675 117 675 q 219 614 219 675 q 205 567 219 582 q 167 551 190 551 z "},"<":{"ha":739,"x_min":70,"x_max":669,"o":"m 669 229 l 669 168 l 70 431 l 70 470 l 669 769 l 669 709 l 149 453 l 669 229 z "},"=":{"ha":739,"x_min":70,"x_max":669,"o":"m 669 301 l 70 301 l 70 353 l 669 353 l 669 301 m 669 559 l 70 559 l 70 611 l 669 611 l 669 559 z "},">":{"ha":739,"x_min":70,"x_max":669,"o":"m 70 168 l 70 229 l 591 453 l 70 709 l 70 769 l 669 470 l 669 431 l 70 168 z "},"?":{"ha":639,"x_min":109,"x_max":571,"o":"m 288 -13 q 237 49 237 -13 q 288 111 237 111 q 340 49 340 111 q 288 -13 340 -13 m 310 238 l 258 238 l 258 262 q 283 389 258 338 q 369 494 307 440 l 427 544 q 492 621 473 583 q 512 708 512 659 q 459 835 512 788 q 316 883 405 883 q 133 836 228 883 l 109 887 q 225 928 178 918 q 322 937 272 937 q 504 875 437 937 q 571 704 571 812 q 540 588 571 633 q 519 558 527 569 q 490 528 510 547 q 431 474 444 484 q 319 339 341 406 q 310 247 310 308 l 310 238 z "},"@":{"ha":1147,"x_min":72,"x_max":1079,"o":"m 400 373 q 435 237 400 282 q 545 192 470 192 q 717 410 705 192 l 727 594 q 605 611 678 611 q 456 547 512 611 q 400 373 400 482 m 863 140 q 772 174 807 140 q 731 267 737 208 l 729 267 q 651 172 701 204 q 531 140 600 140 q 386 201 437 140 q 335 371 335 262 q 411 580 335 499 q 609 661 488 661 q 791 635 698 661 l 777 343 l 777 324 q 799 224 777 256 q 872 192 822 192 q 979 265 937 192 q 1021 458 1020 339 q 971 671 1022 577 q 827 814 920 764 q 616 863 734 864 q 361 801 473 865 q 189 621 249 737 q 129 358 128 506 q 235 44 129 154 q 534 -67 341 -67 q 655 -55 595 -67 q 800 -11 716 -44 l 800 -74 q 539 -124 673 -124 q 195 2 317 -124 q 72 355 72 129 q 140 645 72 516 q 333 846 208 774 q 617 918 459 918 q 950 792 822 921 q 1076 458 1079 664 q 1018 227 1076 314 q 863 140 961 140 z "},"A":{"ha":777,"x_min":0,"x_max":777,"o":"m 704 0 l 576 326 l 200 326 l 72 0 l 0 0 l 371 928 l 413 928 l 777 0 l 704 0 m 353 716 l 224 384 l 554 384 l 428 717 q 390 826 413 755 q 353 716 374 769 z "},"B":{"ha":812,"x_min":131,"x_max":739,"o":"m 399 456 l 195 456 l 195 57 l 413 57 q 669 265 669 57 q 399 456 669 456 m 195 867 l 195 513 l 399 513 q 588 556 529 513 q 647 691 647 599 q 582 825 647 783 q 382 867 516 867 l 195 867 m 131 0 l 131 924 l 384 924 q 635 866 554 924 q 716 690 716 808 q 667 556 716 609 q 524 488 617 503 l 524 484 q 687 414 635 468 q 739 265 739 361 q 654 69 739 138 q 414 0 569 0 l 131 0 z "},"C":{"ha":804,"x_min":80,"x_max":763,"o":"m 525 879 q 251 768 351 879 q 152 462 152 657 q 246 156 152 266 q 515 47 340 47 q 729 77 631 47 l 729 20 q 500 -13 638 -13 q 194 113 306 -13 q 81 464 81 238 q 134 712 80 604 q 289 879 188 820 q 521 937 390 939 q 763 887 657 937 l 737 829 q 525 879 636 879 z "},"D":{"ha":914,"x_min":131,"x_max":832,"o":"m 348 57 q 762 468 762 57 q 661 766 762 666 q 365 867 561 867 l 195 867 l 195 57 l 348 57 m 381 924 q 717 808 602 924 q 832 465 832 692 q 710 119 832 238 q 352 0 588 0 l 131 0 l 131 924 l 381 924 z "},"E":{"ha":714,"x_min":131,"x_max":635,"o":"m 635 60 l 635 0 l 131 0 l 131 924 l 635 924 l 635 864 l 195 864 l 195 515 l 611 515 l 611 456 l 195 456 l 195 60 l 635 60 z "},"F":{"ha":650,"x_min":131,"x_max":637,"o":"m 195 413 l 195 0 l 131 0 l 131 924 l 637 924 l 637 864 l 195 864 l 195 473 l 612 473 l 612 413 l 195 413 z "},"G":{"ha":936,"x_min":81,"x_max":835,"o":"m 494 405 l 494 466 l 835 466 l 835 44 q 534 -13 701 -13 q 198 111 315 -13 q 81 461 81 234 q 139 711 81 602 q 305 879 197 819 q 559 938 413 938 q 824 883 704 938 l 798 824 q 548 881 677 881 q 259 767 366 881 q 152 463 152 654 q 253 150 152 256 q 553 44 355 44 q 769 80 680 44 l 769 405 l 494 405 z "},"H":{"ha":931,"x_min":131,"x_max":800,"o":"m 800 924 l 800 0 l 735 0 l 735 454 l 195 454 l 195 0 l 131 0 l 131 924 l 195 924 l 195 514 l 735 514 l 735 924 l 800 924 z "},"I":{"ha":326,"x_min":131,"x_max":195,"o":"m 195 0 l 131 0 l 131 924 l 195 924 l 195 0 z "},"J":{"ha":319,"x_min":-117,"x_max":195,"o":"m 195 0 q -21 -233 195 -233 q -117 -216 -80 -233 l -117 -161 q -22 -173 -67 -173 q 131 -6 131 -173 l 131 924 l 195 924 l 195 0 z "},"K":{"ha":752,"x_min":131,"x_max":752,"o":"m 195 0 l 131 0 l 131 924 l 195 924 l 195 444 l 298 546 l 660 924 l 742 924 l 363 534 l 752 0 l 673 0 l 319 488 l 195 379 l 195 0 z "},"L":{"ha":664,"x_min":131,"x_max":635,"o":"m 635 0 l 131 0 l 131 924 l 195 924 l 195 60 l 635 60 l 635 0 z "},"M":{"ha":1116,"x_min":131,"x_max":987,"o":"m 192 692 l 192 0 l 131 0 l 131 924 l 230 924 l 558 111 l 562 111 l 889 924 l 987 924 l 987 0 l 921 0 l 921 700 q 929 852 921 770 l 924 852 l 578 0 l 537 0 l 192 853 l 187 853 q 192 692 192 779 z "},"N":{"ha":933,"x_min":131,"x_max":803,"o":"m 803 924 l 803 0 l 737 0 l 190 820 l 185 820 q 192 599 192 680 l 192 0 l 131 0 l 131 924 l 195 924 l 742 105 l 746 105 q 740 321 740 226 l 740 924 l 803 924 z "},"O":{"ha":989,"x_min":81,"x_max":907,"o":"m 495 48 q 578 48 495 48 q 749 155 661 48 q 837 463 837 263 q 749 769 837 663 q 495 876 661 876 q 241 769 330 876 q 152 463 152 661 q 240 156 152 264 q 495 48 329 48 m 191 115 q 81 464 81 243 q 192 811 81 685 q 496 938 303 938 q 798 811 690 938 q 907 463 907 684 q 797 115 907 242 q 495 -13 687 -13 q 191 115 302 -13 z "},"P":{"ha":757,"x_min":131,"x_max":687,"o":"m 195 866 l 195 437 l 322 437 q 548 489 479 437 q 617 652 617 541 q 552 814 617 763 q 348 866 486 866 l 195 866 m 357 924 q 687 659 687 924 q 596 453 687 525 q 338 382 506 382 l 195 382 l 195 0 l 131 0 l 131 924 l 357 924 z "},"Q":{"ha":989,"x_min":81,"x_max":907,"o":"m 495 48 q 578 48 495 48 q 749 155 661 48 q 837 463 837 263 q 749 769 837 663 q 495 876 661 876 q 241 769 330 876 q 152 463 152 661 q 240 156 152 264 q 495 48 329 48 m 907 463 q 828 156 907 277 q 607 0 749 35 l 818 -220 l 713 -220 l 534 -11 l 514 -13 l 494 -13 q 191 115 302 -13 q 81 464 81 243 q 192 811 81 685 q 496 938 303 938 q 798 811 690 938 q 907 463 907 684 z "},"R":{"ha":769,"x_min":131,"x_max":740,"o":"m 195 402 l 195 0 l 131 0 l 131 924 l 350 924 q 604 861 522 924 q 687 669 687 798 q 637 512 687 575 q 489 421 588 448 l 740 0 l 663 0 l 425 402 l 195 402 m 195 866 l 195 458 l 371 458 q 554 510 490 458 q 617 666 617 563 q 554 818 617 770 q 348 866 491 866 l 195 866 z "},"S":{"ha":705,"x_min":70,"x_max":641,"o":"m 641 238 q 556 55 641 124 q 330 -13 470 -13 q 70 25 161 -13 l 70 89 q 325 47 170 47 q 505 99 438 47 q 572 236 572 151 q 550 322 572 287 q 477 385 528 356 q 331 447 426 414 q 136 553 190 496 q 81 708 81 609 q 162 872 81 806 q 372 937 243 937 q 616 888 501 937 l 593 832 q 375 881 478 881 q 209 833 271 881 q 149 704 149 785 q 168 620 149 653 q 228 561 187 586 q 374 498 269 535 q 536 426 480 462 q 616 345 591 390 q 641 238 641 301 z "},"T":{"ha":678,"x_min":6,"x_max":672,"o":"m 371 863 l 371 0 l 306 0 l 306 863 l 6 863 l 6 924 l 672 924 l 672 863 l 371 863 z "},"U":{"ha":931,"x_min":120,"x_max":810,"o":"m 746 924 l 810 924 l 810 326 q 718 77 810 167 q 463 -13 626 -13 q 210 77 300 -13 q 120 329 120 167 l 120 924 l 185 924 l 185 326 q 259 118 185 192 q 467 44 334 44 q 673 117 600 44 q 746 319 746 190 l 746 924 z "},"V":{"ha":747,"x_min":0,"x_max":747,"o":"m 423 229 l 677 924 l 747 924 l 401 0 l 344 0 l 0 924 l 69 924 l 301 295 q 373 81 355 152 q 423 229 385 126 z "},"W":{"ha":1154,"x_min":32,"x_max":1122,"o":"m 1122 924 l 867 0 l 814 0 l 611 713 q 573 857 586 798 q 546 737 564 805 q 341 0 529 669 l 286 0 l 32 924 l 100 924 q 282 250 265 318 q 316 103 306 158 q 381 363 334 196 l 539 924 l 609 924 l 795 281 q 841 101 828 169 q 859 187 850 146 q 1057 924 869 228 l 1122 924 z "},"X":{"ha":697,"x_min":0,"x_max":697,"o":"m 387 483 l 697 0 l 622 0 l 350 431 l 72 0 l 0 0 l 311 482 l 28 924 l 101 924 l 350 528 l 604 924 l 673 924 l 387 483 z "},"Y":{"ha":683,"x_min":0,"x_max":683,"o":"m 376 0 l 309 0 l 309 352 l 0 924 l 74 924 l 343 418 l 614 924 l 683 924 l 376 357 l 376 0 z "},"Z":{"ha":746,"x_min":52,"x_max":694,"o":"m 694 60 l 694 0 l 52 0 l 52 48 l 593 863 l 77 863 l 77 924 l 679 924 l 679 876 l 137 60 l 694 60 z "},"[":{"ha":553,"x_min":180,"x_max":451,"o":"m 451 -74 l 451 -135 l 180 -135 l 180 994 l 451 994 l 451 935 l 242 935 l 242 -74 l 451 -74 z "},"\\":{"ha":441,"x_min":15,"x_max":426,"o":"m 15 924 l 80 924 l 426 0 l 361 0 l 15 924 z "},"]":{"ha":553,"x_min":103,"x_max":373,"o":"m 103 -135 l 103 -74 l 311 -74 l 311 935 l 103 935 l 103 994 l 373 994 l 373 -135 l 103 -135 z "},"^":{"ha":739,"x_min":55,"x_max":683,"o":"m 119 355 l 55 355 l 350 931 l 393 931 l 683 355 l 620 355 l 370 855 l 119 355 z "},"_":{"ha":532,"x_min":-3,"x_max":534,"o":"m 534 -117 l 534 -168 l -3 -168 l -3 -117 l 534 -117 z "},"`":{"ha":747,"x_min":249,"x_max":490,"o":"m 490 871 l 447 871 q 327 980 381 926 q 249 1068 270 1037 l 249 1079 l 338 1079 q 400 989 352 1053 q 490 881 451 924 l 490 871 z "},"a":{"ha":685,"x_min":62,"x_max":578,"o":"m 578 0 l 532 0 l 516 109 l 511 109 q 405 15 459 42 q 275 -13 351 -13 q 118 39 175 -13 q 62 183 62 91 q 146 339 62 284 q 388 397 230 395 l 519 401 l 519 447 q 478 595 519 546 q 346 645 437 645 q 153 591 255 645 l 129 646 q 355 699 243 699 q 522 640 467 699 q 578 457 578 581 l 578 0 m 128 180 q 168 80 128 116 q 279 44 208 44 q 452 107 388 44 q 516 282 516 170 l 516 350 l 396 344 q 190 299 251 338 q 128 180 128 261 z "},"b":{"ha":770,"x_min":115,"x_max":695,"o":"m 628 345 q 404 643 628 643 q 230 574 282 643 q 178 344 178 503 l 178 334 q 232 111 178 178 q 400 43 287 43 q 571 121 513 43 q 628 345 628 199 m 405 700 q 622 610 548 700 q 695 347 695 520 q 618 80 695 174 q 402 -13 541 -13 q 270 18 329 -13 q 178 104 211 48 l 172 104 l 154 0 l 115 0 l 115 983 l 178 983 l 178 736 q 175 634 178 675 l 173 580 l 178 580 q 272 671 217 642 q 405 700 327 700 z "},"c":{"ha":615,"x_min":75,"x_max":569,"o":"m 389 -13 q 158 81 242 -13 q 75 342 75 174 q 162 605 75 510 q 399 700 249 700 q 569 669 487 700 l 553 614 q 397 643 463 643 q 206 566 272 643 q 141 345 141 488 q 206 123 141 202 q 388 44 271 44 q 562 78 482 44 l 562 20 q 389 -13 496 -13 z "},"d":{"ha":770,"x_min":75,"x_max":654,"o":"m 370 -13 q 298 -13 370 -13 q 150 76 225 -13 q 75 338 75 164 q 150 606 75 513 q 367 700 224 700 q 497 672 442 700 q 593 580 551 645 l 597 580 q 593 736 593 660 l 593 983 l 654 983 l 654 0 l 614 0 l 598 105 l 593 105 q 370 -13 515 -13 m 593 344 q 539 574 593 504 q 370 643 486 643 q 198 565 255 643 q 141 335 141 486 q 368 43 141 43 q 539 111 484 43 q 593 334 593 178 l 593 344 z "},"e":{"ha":711,"x_min":75,"x_max":635,"o":"m 569 390 q 518 577 569 509 q 370 645 466 645 q 214 579 274 645 q 145 390 154 513 l 569 390 m 393 -13 q 159 79 243 -13 q 75 338 75 173 q 156 601 75 503 q 374 700 237 700 q 565 615 496 700 q 635 385 635 532 l 635 335 l 141 335 q 207 119 142 194 q 393 44 272 44 q 495 52 449 44 q 609 88 541 60 l 609 31 q 503 -3 553 6 q 393 -13 453 -13 z "},"f":{"ha":388,"x_min":18,"x_max":458,"o":"m 370 687 l 370 633 l 209 633 l 209 0 l 146 0 l 146 633 l 18 633 l 18 669 l 146 692 l 146 746 q 193 931 146 873 q 344 990 239 990 q 458 973 401 990 l 444 919 q 343 935 395 935 q 239 892 270 935 q 209 751 209 849 l 209 687 l 370 687 z "},"g":{"ha":677,"x_min":28,"x_max":651,"o":"m 284 32 q 95 -117 95 32 q 305 -258 95 -258 q 576 -86 576 -258 q 533 5 576 -23 q 396 32 491 32 l 284 32 m 651 687 l 651 643 l 508 635 q 565 479 565 565 q 499 318 565 380 q 322 256 433 256 q 256 261 275 256 q 180 158 180 220 q 205 110 180 124 q 289 95 230 95 l 409 95 q 580 49 521 95 q 640 -84 640 4 q 552 -252 640 -193 q 300 -311 463 -311 q 100 -261 171 -311 q 28 -122 28 -211 q 72 -5 28 -52 q 192 60 115 42 q 141 97 160 72 q 123 153 123 122 q 211 275 123 222 q 118 352 151 299 q 84 473 84 404 q 150 638 84 576 q 326 700 216 700 q 431 687 395 700 l 651 687 m 502 477 q 502 520 502 477 q 456 607 502 562 q 325 651 409 651 q 195 604 242 651 q 147 475 147 557 q 195 350 147 394 q 327 305 243 305 q 456 349 411 305 q 502 477 502 393 z "},"h":{"ha":763,"x_min":115,"x_max":656,"o":"m 656 0 l 594 0 l 594 445 q 551 596 594 548 q 415 643 508 643 q 235 581 291 643 q 178 379 178 518 l 178 0 l 115 0 l 115 983 l 178 983 l 178 671 l 174 583 l 179 583 q 276 672 217 644 q 422 700 334 700 q 656 449 656 700 l 656 0 z "},"i":{"ha":293,"x_min":106,"x_max":187,"o":"m 178 687 l 178 0 l 115 0 l 115 687 l 178 687 m 146 817 q 106 877 106 817 q 146 938 106 938 q 177 922 166 938 q 187 878 187 906 q 177 833 187 850 q 146 817 166 817 z "},"j":{"ha":293,"x_min":-62,"x_max":187,"o":"m 178 -133 q 138 -265 178 -218 q 23 -311 98 -311 q -62 -295 -26 -311 l -62 -241 q 20 -253 -18 -253 q 115 -143 115 -253 l 115 687 l 178 687 l 178 -133 m 146 817 q 106 877 106 817 q 146 938 106 938 q 177 922 166 938 q 187 878 187 906 q 177 833 187 850 q 146 817 166 817 z "},"k":{"ha":626,"x_min":115,"x_max":626,"o":"m 178 0 l 115 0 l 115 983 l 178 983 l 178 490 l 173 301 l 176 301 l 527 687 l 603 687 l 332 394 l 626 0 l 551 0 l 290 347 l 178 244 l 178 0 z "},"l":{"ha":293,"x_min":115,"x_max":178,"o":"m 178 983 l 178 0 l 115 0 l 115 983 l 178 983 z "},"m":{"ha":1142,"x_min":115,"x_max":1035,"o":"m 1035 0 l 973 0 l 973 451 q 934 597 973 550 q 814 643 895 643 q 658 585 708 643 q 607 402 607 527 l 607 0 l 543 0 l 543 470 q 384 643 543 643 q 227 580 276 643 q 178 379 178 517 l 178 0 l 115 0 l 115 687 l 167 687 l 180 593 l 184 593 q 264 672 211 643 q 381 700 317 700 q 589 578 543 700 l 591 578 q 681 668 625 637 q 810 700 738 700 q 980 639 924 700 q 1035 449 1035 579 l 1035 0 z "},"n":{"ha":763,"x_min":115,"x_max":656,"o":"m 656 0 l 594 0 l 594 445 q 551 596 594 548 q 415 643 508 643 q 235 581 291 643 q 178 379 178 518 l 178 0 l 115 0 l 115 687 l 168 687 l 180 593 l 184 593 q 422 700 250 700 q 656 449 656 700 l 656 0 z "},"o":{"ha":758,"x_min":72,"x_max":683,"o":"m 554 565 q 378 643 492 643 q 203 565 264 643 q 141 345 141 487 q 203 123 141 202 q 379 44 265 44 q 555 124 492 44 q 617 345 617 203 q 554 565 617 487 m 75 344 q 157 606 75 512 q 380 700 238 700 q 602 605 522 700 q 683 344 683 510 q 602 81 683 177 q 376 -13 520 -13 q 157 84 241 -15 q 75 344 72 184 z "},"p":{"ha":770,"x_min":115,"x_max":695,"o":"m 409 -13 q 178 106 250 -13 l 173 106 l 175 53 q 178 -49 178 11 l 178 -311 l 115 -311 l 115 687 l 168 687 l 180 589 l 184 589 q 410 700 255 700 q 622 609 549 700 q 695 346 695 517 q 618 80 695 174 q 409 -13 541 -13 m 407 43 q 571 121 513 43 q 628 341 628 199 q 410 643 628 643 q 233 577 289 643 q 178 362 178 510 l 178 342 q 232 112 178 180 q 407 43 286 43 z "},"q":{"ha":770,"x_min":75,"x_max":654,"o":"m 370 643 q 313 643 370 643 q 199 565 256 643 q 141 339 141 487 q 197 117 141 191 q 361 43 253 43 q 539 111 485 43 q 593 343 593 180 l 593 350 q 539 574 593 506 q 370 643 484 643 m 360 -13 q 149 78 223 -13 q 75 339 75 168 q 150 605 75 510 q 363 700 224 700 q 586 591 513 700 l 591 591 l 602 687 l 654 687 l 654 -311 l 593 -311 l 593 -49 q 597 107 593 28 l 593 107 q 360 -13 518 -13 z "},"r":{"ha":503,"x_min":115,"x_max":479,"o":"m 385 700 q 479 692 430 700 l 467 631 q 378 642 424 642 q 233 567 289 642 q 178 379 178 492 l 178 0 l 115 0 l 115 687 l 168 687 l 174 563 l 179 563 q 269 669 220 638 q 385 700 318 700 z "},"s":{"ha":603,"x_min":53,"x_max":541,"o":"m 456 320 q 541 177 541 267 q 471 37 541 86 q 268 -13 401 -13 q 53 29 135 -13 l 53 98 q 264 46 157 46 q 425 79 371 46 q 479 167 479 112 q 437 256 479 222 q 297 327 395 292 q 155 390 199 362 q 91 452 111 418 q 70 534 70 486 q 135 655 70 611 q 313 700 200 700 q 527 659 426 700 l 503 602 q 317 643 402 643 q 183 615 232 643 q 133 536 133 588 q 172 452 133 484 q 311 384 211 420 q 456 320 412 348 z "},"t":{"ha":433,"x_min":15,"x_max":400,"o":"m 181 198 q 209 81 181 119 q 296 43 237 43 q 400 53 356 43 l 400 3 q 295 -13 356 -13 q 161 37 204 -13 q 117 189 117 86 l 117 633 l 15 633 l 15 669 l 117 698 l 149 853 l 181 853 l 181 687 l 383 687 l 383 633 l 181 633 l 181 198 z "},"u":{"ha":763,"x_min":107,"x_max":648,"o":"m 107 687 l 169 687 l 169 242 q 212 92 169 139 q 348 44 256 44 q 529 107 471 44 q 586 308 586 169 l 586 687 l 648 687 l 648 0 l 595 0 l 584 95 l 580 95 q 342 -13 514 -13 q 107 238 107 -13 l 107 687 z "},"v":{"ha":594,"x_min":0,"x_max":594,"o":"m 329 0 l 265 0 l 0 687 l 65 687 l 242 220 q 295 63 277 132 l 299 63 q 352 221 326 149 l 529 687 l 594 687 l 329 0 z "},"w":{"ha":936,"x_min":20,"x_max":916,"o":"m 730 0 l 664 0 l 514 459 q 477 597 497 513 l 473 597 l 431 458 l 278 0 l 216 0 l 20 687 l 86 687 l 197 289 q 247 72 236 141 l 251 72 q 305 268 287 218 l 447 687 l 503 687 l 638 269 q 694 72 686 113 l 698 72 q 749 293 704 114 l 853 687 l 916 687 l 730 0 z "},"x":{"ha":645,"x_min":34,"x_max":609,"o":"m 34 0 l 284 353 l 44 687 l 117 687 l 321 397 l 524 687 l 593 687 l 357 353 l 609 0 l 537 0 l 321 306 l 104 0 l 34 0 z "},"y":{"ha":594,"x_min":0,"x_max":594,"o":"m 83 -311 q 3 -298 46 -311 l 3 -244 q 81 -253 41 -253 q 183 -191 145 -253 q 228 -92 202 -159 q 263 0 254 -25 l 0 687 l 65 687 l 210 301 q 294 62 274 129 l 298 62 q 384 305 325 146 l 529 687 l 594 687 l 286 -111 q 224 -242 250 -207 q 83 -311 173 -311 z "},"z":{"ha":597,"x_min":52,"x_max":542,"o":"m 542 55 l 542 0 l 52 0 l 52 40 l 459 631 l 81 631 l 81 687 l 541 687 l 541 647 l 131 55 l 542 55 z "},"{":{"ha":598,"x_min":109,"x_max":482,"o":"m 316 256 l 316 53 q 354 -44 316 -13 q 482 -77 393 -75 l 482 -135 q 306 -87 358 -135 q 254 59 254 -39 l 254 272 q 109 404 254 402 l 109 454 q 220 486 185 456 q 254 580 254 517 l 254 801 q 482 994 254 990 l 482 937 q 356 901 395 934 q 316 801 316 867 l 316 609 q 289 487 316 527 q 199 433 261 446 l 199 427 q 288 374 260 414 q 316 256 316 334 z "},"|":{"ha":700,"x_min":321,"x_max":379,"o":"m 321 -319 l 321 987 l 379 987 l 379 -319 l 321 -319 z "},"}":{"ha":598,"x_min":116,"x_max":489,"o":"m 282 53 l 282 256 q 310 374 282 334 q 399 427 338 414 l 399 433 q 309 486 337 445 q 282 609 282 527 l 282 801 q 242 901 282 867 q 116 937 203 934 l 116 994 q 285 945 226 994 q 343 801 343 895 l 343 580 q 378 486 343 517 q 489 454 413 456 l 489 404 q 343 272 343 402 l 343 59 q 291 -87 343 -39 q 116 -135 239 -135 l 116 -77 q 243 -44 204 -76 q 282 53 282 -13 z "},"~":{"ha":739,"x_min":70,"x_max":669,"o":"m 211 470 q 142 451 179 470 q 70 395 105 432 l 70 454 q 218 524 139 524 q 290 515 256 524 q 388 479 325 507 q 527 442 466 442 q 595 461 562 442 q 669 521 629 480 l 669 461 q 525 389 600 389 q 361 430 449 389 q 211 470 272 470 z "}," ":{"ha":374,"x_min":0,"x_max":0,"o":""},"©":{"ha":1077,"x_min":63,"x_max":1014,"o":"m 567 690 q 426 631 477 690 q 376 463 376 571 q 562 233 376 233 q 687 261 615 233 l 687 205 q 555 176 621 176 q 373 249 437 176 q 309 456 309 322 q 379 668 309 590 q 567 747 449 747 q 711 714 641 747 l 687 661 q 567 690 624 690 m 901 667 q 874 715 901 667 q 750 821 848 763 q 540 879 652 879 q 330 823 427 879 q 178 669 233 766 q 122 460 122 572 q 178 253 122 349 q 330 102 233 158 q 539 46 426 46 q 747 101 651 46 q 899 253 843 157 q 955 460 955 350 q 901 667 955 571 m 952 228 q 781 53 892 119 q 539 -13 670 -13 q 297 52 407 -13 q 125 227 187 117 q 63 463 63 337 q 126 699 63 588 q 300 873 190 810 q 537 937 410 937 q 775 874 664 937 q 950 700 885 811 q 1014 463 1014 590 q 952 228 1014 337 z "},"×":{"ha":739,"x_min":75,"x_max":664,"o":"m 111 751 l 369 493 l 628 751 l 664 714 l 407 457 l 663 199 l 626 163 l 369 421 l 112 163 l 77 199 l 332 457 l 75 714 l 111 751 z "},"÷":{"ha":739,"x_min":70,"x_max":669,"o":"m 369 172 q 319 234 319 172 q 370 296 319 296 q 421 235 421 296 q 407 187 421 202 q 369 172 393 172 m 669 431 l 70 431 l 70 483 l 669 483 l 669 431 m 421 679 q 407 633 421 648 q 370 617 393 617 q 333 633 347 617 q 319 679 319 648 q 370 742 319 742 q 421 679 421 742 z "},"ʼ":{"ha":448,"x_min":148,"x_max":315,"o":"m 312 1056 l 315 1044 l 200 731 l 148 731 l 213 1056 l 312 1056 z "},"ऀ":{"ha":0,"x_min":-448,"x_max":27,"o":"m -210 1118 q -165 1063 -165 1118 q -210 1008 -165 1008 q -256 1063 -256 1008 q -210 1118 -256 1118 m -219 1286 q 27 1178 -78 1286 l 5 1126 q -213 1228 -90 1228 q -421 1127 -336 1228 l -448 1171 q -346 1256 -405 1226 q -219 1286 -287 1286 z "},"ँ":{"ha":0,"x_min":-451,"x_max":23,"o":"m -206 1008 q -451 1116 -347 1008 l -430 1168 q -212 1066 -335 1066 q -4 1167 -88 1066 l 23 1123 q -79 1038 -20 1068 q -206 1008 -138 1008 m -215 1176 q -260 1231 -260 1176 q -215 1286 -260 1286 q -169 1231 -169 1286 q -215 1176 -169 1176 z "},"ं":{"ha":0,"x_min":-258,"x_max":-155,"o":"m -244 1068 q -251 1076 -244 1068 q -258 1112 -258 1084 q -244 1156 -258 1140 q -207 1172 -231 1172 q -169 1156 -183 1172 q -155 1112 -155 1140 q -169 1068 -155 1084 q -207 1053 -183 1053 q -244 1068 -231 1053 z "},"ः":{"ha":322,"x_min":117,"x_max":219,"o":"m 167 -13 q 117 49 117 -13 q 167 111 117 111 q 219 49 219 111 q 167 -13 219 -13 m 167 551 q 117 613 117 551 q 167 675 117 675 q 219 614 219 675 q 205 567 219 582 q 167 551 190 551 z "},"ऄ":{"ha":1065,"x_min":86,"x_max":1086,"o":"m 827 0 l 827 395 q 675 366 767 366 q 588 372 636 366 q 591 338 591 356 q 526 180 591 241 q 359 120 461 120 q 216 145 279 120 q 86 223 153 170 l 106 276 q 226 199 171 222 q 359 176 282 176 q 484 224 435 176 q 534 346 534 272 q 390 523 534 454 q 235 502 321 502 l 230 502 l 218 554 l 222 554 q 428 602 355 554 q 500 715 500 651 q 456 815 500 779 q 339 852 412 852 q 241 835 285 852 q 150 785 197 819 l 127 837 q 332 906 226 906 q 497 856 439 906 q 556 714 556 805 q 529 621 556 664 q 450 549 502 578 q 571 430 541 494 q 674 421 612 421 q 827 458 763 421 l 827 841 l 660 841 l 660 895 l 827 895 l 827 981 q 806 1050 827 1026 q 756 1074 786 1074 q 666 1056 725 1074 q 562 1039 607 1039 q 477 1060 517 1039 q 398 1123 438 1080 l 424 1168 q 497 1112 467 1128 q 560 1096 528 1096 q 656 1116 593 1096 q 756 1135 720 1135 q 852 1096 814 1135 q 890 988 890 1057 l 890 895 l 1086 895 l 1086 841 l 890 841 l 890 0 l 827 0 z "},"अ":{"ha":1065,"x_min":86,"x_max":1086,"o":"m 827 0 l 827 395 q 675 366 767 366 q 588 372 636 366 q 591 338 591 356 q 526 180 591 241 q 359 120 461 120 q 216 145 279 120 q 86 223 153 170 l 106 276 q 226 199 171 222 q 359 176 282 176 q 484 224 435 176 q 534 346 534 272 q 390 523 534 454 q 235 502 321 502 l 230 502 l 218 554 l 222 554 q 428 602 355 554 q 500 715 500 651 q 456 815 500 779 q 339 852 412 852 q 241 835 285 852 q 150 785 197 819 l 127 837 q 332 906 226 906 q 497 856 439 906 q 556 714 556 805 q 529 621 556 664 q 450 549 502 578 q 571 430 541 494 q 674 421 612 421 q 827 458 763 421 l 827 841 l 660 841 l 660 895 l 1086 895 l 1086 841 l 890 841 l 890 0 l 827 0 z "},"आ":{"ha":1449,"x_min":86,"x_max":1470,"o":"m 827 0 l 827 409 q 675 380 767 380 q 580 388 625 380 q 582 350 582 370 q 521 203 582 262 q 360 144 459 144 q 219 172 285 144 q 86 253 154 199 l 106 306 q 230 226 171 251 q 353 200 289 200 q 480 245 435 200 q 525 359 525 289 q 398 533 525 467 q 235 509 329 509 l 230 509 l 218 561 l 222 561 q 428 606 356 561 q 500 716 500 652 q 459 808 500 771 q 346 845 417 845 q 157 784 245 845 l 134 836 q 336 899 230 899 q 500 849 443 899 q 556 714 556 798 q 530 628 556 668 q 456 559 505 588 q 564 445 536 508 q 674 435 606 435 q 827 472 763 435 l 827 841 l 660 841 l 660 895 l 1470 895 l 1470 841 l 1275 841 l 1275 0 l 1213 0 l 1213 841 l 890 841 l 890 0 l 827 0 z "},"इ":{"ha":678,"x_min":-21,"x_max":699,"o":"m 109 140 q 129 187 109 168 q 180 206 150 206 q 313 119 233 206 q 484 168 424 125 q 544 271 544 211 q 507 352 544 322 q 395 382 469 382 q 239 338 320 382 l 236 338 q 88 525 88 407 q 138 628 88 588 q 286 668 187 668 l 479 668 l 479 841 l -21 841 l -21 895 l 699 895 l 699 841 l 541 841 l 541 614 l 284 614 q 144 513 144 614 q 167 451 144 481 q 232 400 190 421 q 405 437 319 437 q 546 391 492 437 q 600 269 600 345 q 534 137 600 192 q 352 68 468 81 l 501 -93 l 463 -131 l 286 64 q 154 85 200 65 q 109 140 109 105 z "},"ई":{"ha":678,"x_min":-21,"x_max":699,"o":"m 109 140 q 129 187 109 168 q 180 206 150 206 q 313 119 233 206 q 484 168 424 125 q 544 271 544 211 q 507 352 544 322 q 395 382 469 382 q 239 338 320 382 l 236 338 q 88 525 88 407 q 138 628 88 588 q 286 668 187 668 l 479 668 l 479 841 l -21 841 l -21 895 l 463 895 q 403 1091 403 1008 q 445 1195 403 1153 q 559 1237 487 1237 q 659 1224 610 1237 l 654 1173 q 574 1182 610 1182 q 490 1154 518 1182 q 463 1078 463 1126 q 526 895 463 1006 l 699 895 l 699 841 l 541 841 l 541 614 l 284 614 q 144 513 144 614 q 167 451 144 481 q 232 400 190 421 q 405 437 319 437 q 546 391 492 437 q 600 269 600 345 q 534 137 600 192 q 352 68 468 81 l 501 -93 l 463 -131 l 286 64 q 154 85 200 65 q 109 140 109 105 z "},"उ":{"ha":735,"x_min":-21,"x_max":756,"o":"m 367 31 q 53 142 209 31 l 73 194 q 220 114 143 141 q 366 87 297 87 q 521 141 464 87 q 577 279 577 195 q 532 402 577 343 q 411 497 487 462 q 223 469 331 469 l 206 469 l 196 521 l 210 521 q 439 572 361 521 q 517 694 517 623 q 441 841 517 782 l -21 841 l -21 895 l 756 895 l 756 841 l 517 841 q 572 692 572 781 q 472 526 572 587 q 633 273 633 426 q 560 98 633 165 q 367 31 487 31 z "},"ऊ":{"ha":1064,"x_min":-21,"x_max":1086,"o":"m 633 273 q 560 98 633 165 q 367 31 487 31 q 53 142 209 31 l 73 194 q 220 114 143 141 q 366 87 297 87 q 521 141 464 87 q 577 279 577 195 q 532 402 577 343 q 411 497 487 462 q 223 469 331 469 l 206 469 l 196 521 l 210 521 q 439 572 361 521 q 517 694 517 623 q 441 841 517 782 l -21 841 l -21 895 l 1086 895 l 1086 841 l 517 841 q 572 692 572 781 q 472 526 572 587 q 544 470 514 499 q 642 522 584 501 q 756 543 701 543 q 914 482 855 543 q 974 333 974 421 q 883 79 974 200 l 829 102 q 918 334 918 218 q 874 443 918 401 q 760 486 831 486 q 583 427 669 486 q 633 273 633 359 z "},"ऋ":{"ha":1030,"x_min":-21,"x_max":1051,"o":"m 576 0 l 513 0 l 513 334 l 164 147 l 132 196 l 513 398 l 513 407 l 405 480 q 288 547 333 529 q 196 565 243 565 q 83 536 148 565 l 62 588 q 204 622 140 622 q 442 520 293 622 l 513 473 l 513 841 l -21 841 l -21 895 l 1051 895 l 1051 841 l 576 841 l 576 438 q 638 435 609 435 q 796 480 731 435 q 771 525 771 509 q 788 552 771 541 q 838 562 805 562 q 891 550 870 561 q 911 518 911 539 q 877 465 911 497 q 965 251 965 343 q 917 135 965 186 q 775 58 869 84 l 750 105 q 911 259 911 154 q 835 434 911 332 q 640 380 746 380 q 576 384 608 380 l 576 0 z "},"ऌ":{"ha":1020,"x_min":-21,"x_max":1041,"o":"m 910 -53 q 777 -81 845 -81 q 661 -40 708 -81 q 614 64 614 1 q 663 171 614 128 q 796 214 711 214 l 803 214 q 880 403 880 315 q 842 520 880 476 q 734 565 805 565 q 588 490 652 565 q 501 268 525 415 l 449 289 q 509 474 467 397 q 308 565 412 565 q 190 517 237 565 q 143 400 143 469 q 189 241 143 317 q 345 66 235 165 l 302 29 q 139 220 192 131 q 86 404 86 309 q 146 561 86 499 q 305 622 207 622 q 539 521 433 622 q 713 621 611 615 l 713 841 l -21 841 l -21 895 l 1041 895 l 1041 841 l 776 841 l 776 618 q 893 544 852 603 q 935 401 935 485 q 834 163 935 286 l 803 163 q 700 132 735 163 q 666 61 666 102 q 696 -6 666 20 q 782 -31 726 -31 q 899 -4 837 -31 l 910 -53 z "},"ऍ":{"ha":776,"x_min":-21,"x_max":797,"o":"m 578 22 q 510 117 578 70 l 258 289 q 167 384 192 334 q 143 520 143 434 l 143 841 l -21 841 l -21 895 l 797 895 l 797 841 l 615 841 l 615 522 q 555 355 615 448 l 499 388 q 541 473 529 435 q 553 574 553 510 l 553 841 l 205 841 l 205 503 q 223 406 205 442 q 282 343 240 371 l 546 160 q 617 93 597 125 q 638 29 638 61 q 628 -31 638 -4 q 596 -103 619 -58 l 540 -80 q 578 22 578 -18 m 391 1035 q 145 1142 250 1035 l 167 1194 q 385 1093 262 1093 q 593 1194 508 1093 l 620 1150 q 518 1065 577 1095 q 391 1035 459 1035 z "},"ऎ":{"ha":776,"x_min":-21,"x_max":797,"o":"m 578 22 q 510 117 578 70 l 258 289 q 167 384 192 334 q 143 520 143 434 l 143 841 l -21 841 l -21 895 l 553 895 l 553 981 q 532 1050 553 1026 q 481 1074 511 1074 q 391 1056 451 1074 q 287 1039 332 1039 q 203 1060 242 1039 q 124 1123 164 1080 l 150 1168 q 223 1112 192 1128 q 286 1096 253 1096 q 382 1116 318 1096 q 482 1135 445 1135 q 577 1096 539 1135 q 615 988 615 1057 l 615 895 l 797 895 l 797 841 l 615 841 l 615 522 q 555 355 615 448 l 499 388 q 541 473 529 435 q 553 574 553 510 l 553 841 l 205 841 l 205 503 q 223 406 205 442 q 282 343 240 371 l 546 160 q 617 93 597 125 q 638 29 638 61 q 628 -31 638 -4 q 596 -103 619 -58 l 540 -80 q 578 22 578 -18 z "},"ए":{"ha":776,"x_min":-21,"x_max":797,"o":"m 578 22 q 510 117 578 70 l 258 289 q 167 384 192 334 q 143 520 143 434 l 143 841 l -21 841 l -21 895 l 797 895 l 797 841 l 615 841 l 615 522 q 555 355 615 448 l 499 388 q 541 473 529 435 q 553 574 553 510 l 553 841 l 205 841 l 205 503 q 223 406 205 442 q 282 343 240 371 l 546 160 q 617 93 597 125 q 638 29 638 61 q 628 -31 638 -4 q 596 -103 619 -58 l 540 -80 q 578 22 578 -18 z "},"ऐ":{"ha":776,"x_min":-21,"x_max":797,"o":"m 578 22 q 510 117 578 70 l 258 289 q 167 384 192 334 q 143 520 143 434 l 143 841 l -21 841 l -21 895 l 524 895 l 200 1203 l 243 1245 l 605 895 l 797 895 l 797 841 l 615 841 l 615 522 q 555 355 615 448 l 499 388 q 541 473 529 435 q 553 574 553 510 l 553 841 l 205 841 l 205 503 q 223 406 205 442 q 282 343 240 371 l 546 160 q 617 93 597 125 q 638 29 638 61 q 628 -31 638 -4 q 596 -103 619 -58 l 540 -80 q 578 22 578 -18 z "},"ऑ":{"ha":1449,"x_min":86,"x_max":1470,"o":"m 827 0 l 827 409 q 675 380 767 380 q 580 388 625 380 q 582 350 582 370 q 521 203 582 262 q 360 144 459 144 q 219 172 285 144 q 86 253 154 199 l 106 306 q 230 226 171 251 q 353 200 289 200 q 480 245 435 200 q 525 359 525 289 q 398 533 525 467 q 235 509 329 509 l 230 509 l 218 561 l 222 561 q 428 606 356 561 q 500 716 500 652 q 459 808 500 771 q 346 845 417 845 q 157 784 245 845 l 134 836 q 336 899 230 899 q 500 849 443 899 q 556 714 556 798 q 530 628 556 668 q 456 559 505 588 q 564 445 536 508 q 674 435 606 435 q 827 472 763 435 l 827 841 l 660 841 l 660 895 l 1470 895 l 1470 841 l 1275 841 l 1275 0 l 1213 0 l 1213 841 l 890 841 l 890 0 l 827 0 m 1238 1008 q 992 1116 1097 1008 l 1014 1168 q 1232 1066 1109 1066 q 1439 1167 1355 1066 l 1467 1123 q 1365 1038 1424 1068 q 1238 1008 1306 1008 z "},"ऒ":{"ha":1449,"x_min":86,"x_max":1470,"o":"m 827 0 l 827 409 q 675 380 767 380 q 580 388 625 380 q 582 350 582 370 q 521 203 582 262 q 360 144 459 144 q 219 172 285 144 q 86 253 154 199 l 106 306 q 230 226 171 251 q 353 200 289 200 q 480 245 435 200 q 525 359 525 289 q 398 533 525 467 q 235 509 329 509 l 230 509 l 218 561 l 222 561 q 428 606 356 561 q 500 716 500 652 q 459 808 500 771 q 346 845 417 845 q 157 784 245 845 l 134 836 q 336 899 230 899 q 500 849 443 899 q 556 714 556 798 q 530 628 556 668 q 456 559 505 588 q 564 445 536 508 q 674 435 606 435 q 827 472 763 435 l 827 841 l 660 841 l 660 895 l 1213 895 l 1213 981 q 1192 1050 1213 1026 q 1141 1074 1171 1074 q 1051 1056 1111 1074 q 947 1039 992 1039 q 863 1060 902 1039 q 784 1123 824 1080 l 810 1168 q 883 1112 852 1128 q 946 1096 914 1096 q 1042 1116 978 1096 q 1142 1135 1105 1135 q 1237 1096 1199 1135 q 1275 988 1275 1057 l 1275 895 l 1470 895 l 1470 841 l 1275 841 l 1275 0 l 1213 0 l 1213 841 l 890 841 l 890 0 l 827 0 z "},"ओ":{"ha":1449,"x_min":86,"x_max":1470,"o":"m 827 0 l 827 409 q 675 380 767 380 q 580 388 625 380 q 582 350 582 370 q 521 203 582 262 q 360 144 459 144 q 219 172 285 144 q 86 253 154 199 l 106 306 q 230 226 171 251 q 353 200 289 200 q 480 245 435 200 q 525 359 525 289 q 398 533 525 467 q 235 509 329 509 l 230 509 l 218 561 l 222 561 q 428 606 356 561 q 500 716 500 652 q 459 808 500 771 q 346 845 417 845 q 157 784 245 845 l 134 836 q 336 899 230 899 q 500 849 443 899 q 556 714 556 798 q 530 628 556 668 q 456 559 505 588 q 564 445 536 508 q 674 435 606 435 q 827 472 763 435 l 827 841 l 660 841 l 660 895 l 1189 895 l 865 1203 l 908 1245 l 1270 895 l 1470 895 l 1470 841 l 1275 841 l 1275 0 l 1213 0 l 1213 841 l 890 841 l 890 0 l 827 0 z "},"औ":{"ha":1449,"x_min":86,"x_max":1470,"o":"m 827 0 l 827 409 q 675 380 767 380 q 580 388 625 380 q 582 350 582 370 q 521 203 582 262 q 360 144 459 144 q 219 172 285 144 q 86 253 154 199 l 106 306 q 230 226 171 251 q 353 200 289 200 q 480 245 435 200 q 525 359 525 289 q 398 533 525 467 q 235 509 329 509 l 230 509 l 218 561 l 222 561 q 428 606 356 561 q 500 716 500 652 q 459 808 500 771 q 346 845 417 845 q 157 784 245 845 l 134 836 q 336 899 230 899 q 500 849 443 899 q 556 714 556 798 q 530 628 556 668 q 456 559 505 588 q 564 445 536 508 q 674 435 606 435 q 827 472 763 435 l 827 841 l 660 841 l 660 895 l 1082 895 l 713 1130 l 745 1183 l 1185 895 l 1199 895 l 1043 1255 l 1101 1277 l 1265 895 l 1470 895 l 1470 841 l 1275 841 l 1275 0 l 1213 0 l 1213 841 l 890 841 l 890 0 l 827 0 z "},"क":{"ha":1066,"x_min":-21,"x_max":1087,"o":"m 576 0 l 514 0 l 514 276 q 306 200 425 200 q 146 266 209 200 q 84 437 84 333 q 142 576 84 521 q 306 632 201 632 q 514 575 412 632 l 514 841 l -21 841 l -21 895 l 1087 895 l 1087 841 l 576 841 l 576 529 q 670 573 617 555 q 772 590 723 590 q 930 529 871 590 q 990 380 990 468 q 899 126 990 247 l 845 149 q 934 381 934 265 q 890 490 934 448 q 777 533 847 533 q 672 512 726 533 q 576 458 618 491 l 576 0 m 303 253 q 514 347 420 253 l 514 515 q 310 576 417 576 q 183 534 227 576 q 139 420 139 493 q 185 300 139 346 q 303 253 230 253 z "},"ख":{"ha":1154,"x_min":-21,"x_max":1175,"o":"m 916 0 l 916 110 q 666 64 819 64 q 247 230 414 64 q 156 346 205 272 q 80 470 107 419 q 53 535 53 521 q 60 555 53 548 q 78 562 67 562 q 114 534 98 562 l 160 449 q 293 541 257 485 q 329 695 329 596 l 329 841 l -21 841 l -21 895 l 1175 895 l 1175 841 l 979 841 l 979 0 l 916 0 m 751 369 q 916 428 841 369 l 916 582 q 761 621 840 621 q 644 586 681 621 q 607 496 607 550 q 647 406 607 442 q 751 369 687 369 m 659 119 q 916 171 808 119 l 916 364 q 755 317 843 317 q 610 371 667 317 q 553 502 553 426 q 605 626 553 579 q 746 673 657 673 q 916 638 836 673 l 916 841 l 392 841 l 392 686 q 383 599 392 638 q 352 522 374 560 q 188 398 310 444 q 300 256 235 321 q 462 155 365 191 q 659 119 558 119 z "},"ग":{"ha":831,"x_min":-21,"x_max":852,"o":"m 593 0 l 593 841 l 270 841 l 270 339 q 264 318 270 324 q 241 312 258 312 q 172 370 223 312 q 120 449 120 428 q 152 473 120 473 l 207 473 l 207 841 l -21 841 l -21 895 l 852 895 l 852 841 l 655 841 l 655 0 l 593 0 z "},"घ":{"ha":893,"x_min":-21,"x_max":914,"o":"m 421 213 q 655 310 556 213 l 655 841 l 155 841 q 131 746 131 796 q 180 630 131 683 q 336 558 230 577 q 464 579 390 579 l 474 579 l 490 529 l 480 529 q 312 482 366 529 q 259 360 259 435 q 304 256 259 299 q 421 213 349 213 m 655 0 l 655 236 q 433 159 558 159 q 266 219 329 159 q 203 370 203 278 q 270 519 203 461 q 156 579 202 539 q 72 755 72 650 q 88 841 72 798 l -21 841 l -21 895 l 914 895 l 914 841 l 718 841 l 718 0 l 655 0 z "},"ङ":{"ha":895,"x_min":-21,"x_max":916,"o":"m 439 43 q 266 65 345 43 q 98 138 187 87 l 114 192 q 432 95 262 95 q 580 139 529 95 q 631 255 631 183 q 587 348 631 315 q 458 382 542 382 q 282 334 374 382 l 279 334 q 164 417 203 369 q 125 524 125 466 q 173 625 125 582 q 318 668 221 668 l 550 668 l 550 841 l -21 841 l -21 895 l 916 895 l 916 841 l 612 841 l 612 614 l 312 614 q 212 586 245 614 q 180 518 180 558 q 206 445 180 477 q 277 393 232 413 q 471 437 378 437 q 625 387 564 437 q 686 247 686 337 q 619 100 686 157 q 439 43 552 43 m 772 445 q 722 507 722 445 q 772 569 722 569 q 824 507 824 569 q 772 445 824 445 z "},"च":{"ha":940,"x_min":-21,"x_max":961,"o":"m 701 0 l 701 263 q 496 186 610 186 q 314 245 382 186 q 245 398 245 305 q 269 496 245 451 q 335 569 292 541 l 66 569 l 66 622 l 566 622 l 566 569 l 515 569 q 361 517 419 569 q 303 396 303 466 q 353 284 303 325 q 487 242 403 242 q 701 338 609 242 l 701 841 l -21 841 l -21 895 l 961 895 l 961 841 l 764 841 l 764 0 l 701 0 z "},"छ":{"ha":991,"x_min":-21,"x_max":1012,"o":"m 623 512 q 805 292 623 399 q 851 473 851 376 q 819 586 851 543 q 734 628 788 628 q 652 596 680 628 q 623 512 623 564 m 463 101 q 640 140 559 101 q 775 248 722 179 q 620 377 674 307 q 567 518 567 447 q 612 637 567 590 q 731 683 657 683 q 753 682 739 683 l 753 841 l 286 841 q 189 770 221 817 q 157 674 157 724 q 196 582 157 624 q 310 520 234 539 q 433 536 362 536 l 437 536 l 452 484 l 447 484 q 334 469 382 484 q 258 427 285 454 q 206 299 206 375 q 279 162 206 223 q 463 101 352 101 m 475 46 q 335 68 398 46 q 231 129 271 91 q 169 213 191 166 q 147 310 147 261 q 239 487 147 426 q 98 687 98 552 q 118 770 98 730 q 178 841 138 811 l -21 841 l -21 895 l 1012 895 l 1012 841 l 815 841 l 815 661 q 882 587 857 636 q 906 470 906 538 q 847 258 906 356 q 689 103 789 160 q 475 46 590 46 z "},"ज":{"ha":1068,"x_min":-21,"x_max":1089,"o":"m 830 0 l 830 569 l 473 569 q 586 467 543 529 q 629 334 629 404 q 575 194 629 249 q 428 140 522 140 q 71 424 240 140 l 107 468 q 423 196 268 196 q 535 235 496 196 q 574 342 574 275 q 510 476 574 409 q 342 574 446 542 l 342 622 l 830 622 l 830 841 l -21 841 l -21 895 l 1089 895 l 1089 841 l 892 841 l 892 0 l 830 0 z "},"झ":{"ha":1067,"x_min":-21,"x_max":1088,"o":"m 109 140 q 129 187 109 168 q 180 206 150 206 q 313 119 233 206 q 484 168 424 125 q 544 271 544 211 q 507 352 544 322 q 395 382 469 382 q 239 338 320 382 l 236 338 q 88 525 88 407 q 138 628 88 588 q 286 668 187 668 l 479 668 l 479 841 l -21 841 l -21 895 l 1088 895 l 1088 841 l 891 841 l 891 0 l 829 0 l 829 292 q 712 275 774 275 q 599 284 650 275 q 600 271 600 280 q 534 137 600 192 q 352 68 468 81 l 501 -93 l 463 -131 l 286 64 q 154 85 200 65 q 109 140 109 105 m 584 343 q 703 330 631 330 q 829 352 774 330 l 829 841 l 541 841 l 541 614 l 284 614 q 144 513 144 614 q 167 451 144 481 q 232 400 190 421 q 393 437 319 437 q 515 412 468 437 q 584 343 562 387 z "},"ञ":{"ha":1126,"x_min":-21,"x_max":1147,"o":"m 888 0 l 888 400 q 749 378 822 378 q 618 388 676 378 q 555 240 614 301 q 406 180 495 180 q 238 222 316 180 q 58 368 159 264 l 88 418 q 251 278 178 319 q 398 237 324 237 q 517 285 472 237 q 562 403 562 334 q 513 521 562 473 q 394 569 464 569 q 231 504 312 570 l 201 552 q 383 625 292 624 q 536 576 474 626 q 614 445 598 526 q 744 434 669 434 q 888 462 819 434 l 888 841 l -21 841 l -21 895 l 1147 895 l 1147 841 l 951 841 l 951 0 l 888 0 z "},"ट":{"ha":779,"x_min":-21,"x_max":800,"o":"m 433 70 q 191 153 284 70 q 98 364 98 237 q 179 551 98 480 q 400 622 260 622 l 541 622 l 541 841 l -21 841 l -21 895 l 800 895 l 800 841 l 604 841 l 604 569 l 425 569 q 226 512 294 569 q 158 355 158 456 q 233 190 158 255 q 429 126 308 126 q 635 169 529 126 l 652 114 q 542 80 591 89 q 433 70 493 70 z "},"ठ":{"ha":849,"x_min":-21,"x_max":870,"o":"m 158 356 q 158 306 158 356 q 236 191 158 256 q 436 126 315 126 q 635 190 558 126 q 713 355 713 253 q 690 466 713 414 q 614 569 668 517 l 427 569 q 226 513 295 569 q 158 356 158 457 m 767 348 q 674 149 767 227 q 437 70 581 70 q 196 155 293 70 q 98 361 98 240 q 180 552 98 482 q 395 622 262 622 l 611 622 l 611 841 l -21 841 l -21 895 l 870 895 l 870 841 l 673 841 l 673 589 q 745 477 723 534 q 767 348 767 420 z "},"ड":{"ha":788,"x_min":-21,"x_max":809,"o":"m 439 43 q 266 65 345 43 q 98 138 187 87 l 114 192 q 432 95 262 95 q 580 139 529 95 q 631 255 631 183 q 587 348 631 315 q 458 382 542 382 q 282 334 374 382 l 279 334 q 164 417 203 369 q 125 524 125 466 q 173 625 125 582 q 318 668 221 668 l 550 668 l 550 841 l -21 841 l -21 895 l 809 895 l 809 841 l 612 841 l 612 614 l 312 614 q 212 586 245 614 q 180 518 180 558 q 206 445 180 477 q 277 393 232 413 q 471 437 378 437 q 625 387 564 437 q 686 247 686 337 q 619 100 686 157 q 439 43 552 43 z "},"ढ":{"ha":769,"x_min":-21,"x_max":790,"o":"m 451 108 q 600 141 553 108 q 647 223 647 173 q 618 289 647 263 q 534 316 588 316 q 450 285 480 316 q 421 204 421 254 q 450 108 421 153 l 451 108 m 469 57 q 315 83 385 57 q 197 153 244 110 q 124 255 150 197 q 98 376 98 312 q 179 555 98 489 q 393 622 261 622 l 531 622 l 531 841 l -21 841 l -21 895 l 790 895 l 790 841 l 593 841 l 593 569 l 428 569 q 228 515 298 569 q 158 356 158 461 q 223 201 158 270 q 391 113 289 131 q 366 215 366 162 q 409 326 366 282 q 530 370 453 370 q 654 326 607 370 q 701 215 701 282 q 640 103 701 148 q 469 57 579 57 z "},"ण":{"ha":1007,"x_min":-21,"x_max":1028,"o":"m 315 339 q 459 522 459 339 l 459 841 l 174 841 l 174 501 q 212 380 174 421 q 315 339 249 339 m 769 0 l 769 841 l 522 841 l 522 528 q 472 347 522 411 q 321 282 421 282 q 166 344 220 282 q 112 526 112 407 l 112 841 l -21 841 l -21 895 l 1028 895 l 1028 841 l 831 841 l 831 0 l 769 0 z "},"त":{"ha":798,"x_min":-21,"x_max":819,"o":"m 101 398 q 167 561 101 499 q 360 622 234 622 l 560 622 l 560 841 l -21 841 l -21 895 l 819 895 l 819 841 l 623 841 l 623 0 l 560 0 l 560 569 l 383 569 q 216 520 272 569 q 161 391 161 472 q 194 230 161 311 q 320 22 228 149 l 268 -1 q 139 218 176 124 q 101 398 101 313 z "},"थ":{"ha":886,"x_min":79,"x_max":907,"o":"m 237 865 q 163 837 190 865 q 135 761 135 809 q 192 671 135 713 q 361 624 249 628 q 379 711 379 664 q 338 822 379 779 q 237 865 298 865 m 648 0 l 648 303 q 445 232 560 232 q 117 458 248 232 l 117 461 q 329 576 268 508 q 147 641 216 583 q 79 772 79 699 q 120 879 79 835 q 233 923 162 923 q 376 860 317 923 q 434 704 434 797 q 371 539 434 610 q 198 431 308 467 q 306 326 243 364 q 442 287 369 287 q 648 375 558 287 l 648 841 l 565 841 l 565 895 l 907 895 l 907 841 l 711 841 l 711 0 l 648 0 z "},"द":{"ha":732,"x_min":-21,"x_max":753,"o":"m 404 117 q 176 196 263 117 q 89 395 89 276 q 162 559 89 492 q 366 626 235 626 l 494 626 l 494 841 l -21 841 l -21 895 l 753 895 l 753 841 l 556 841 l 556 572 l 396 572 q 279 556 329 572 q 202 513 230 541 q 149 376 149 459 q 219 233 149 294 q 402 173 289 173 q 476 182 442 173 q 459 234 459 215 q 513 270 459 270 q 591 254 559 270 q 624 219 624 239 q 605 181 624 199 q 555 147 587 162 l 668 -90 l 616 -111 l 503 128 q 404 117 454 117 z "},"ध":{"ha":869,"x_min":24,"x_max":890,"o":"m 77 748 q 93 673 77 709 q 243 727 192 687 q 294 812 294 767 q 271 865 294 845 q 209 886 248 886 q 113 846 150 886 q 77 748 77 806 m 631 0 l 631 229 q 409 152 534 152 q 244 209 308 152 q 180 355 180 265 q 249 501 180 444 q 83 599 141 532 q 24 750 24 666 q 74 886 24 834 q 197 939 124 939 q 307 901 269 939 q 345 806 345 863 q 288 696 345 749 q 122 629 230 644 q 311 536 183 562 q 439 558 367 558 l 448 558 l 464 508 l 457 508 q 351 494 396 508 q 282 455 306 480 q 236 348 236 409 q 282 247 236 287 q 397 206 329 206 q 631 303 532 206 l 631 841 l 555 841 l 555 895 l 890 895 l 890 841 l 694 841 l 694 0 l 631 0 z "},"न":{"ha":812,"x_min":-21,"x_max":833,"o":"m 574 0 l 574 488 l 216 488 l 216 342 q 192 307 216 307 q 165 322 180 307 q 128 398 150 338 q 106 504 106 459 q 145 541 106 541 l 574 541 l 574 841 l -21 841 l -21 895 l 833 895 l 833 841 l 637 841 l 637 0 l 574 0 z "},"ऩ":{"ha":812,"x_min":-21,"x_max":833,"o":"m 147 -29 q 140 -21 147 -29 q 133 15 133 -13 q 147 59 133 43 q 184 74 160 74 q 222 59 209 74 q 236 15 236 43 q 222 -29 236 -13 q 184 -45 209 -45 q 147 -29 160 -45 m 574 0 l 574 488 l 216 488 l 216 342 q 192 307 216 307 q 165 322 180 307 q 128 398 150 338 q 106 504 106 459 q 145 541 106 541 l 574 541 l 574 841 l -21 841 l -21 895 l 833 895 l 833 841 l 637 841 l 637 0 l 574 0 z "},"प":{"ha":772,"x_min":-21,"x_max":793,"o":"m 180 530 q 223 399 180 440 q 357 358 266 358 q 534 409 447 358 l 534 841 l 180 841 l 180 530 m 534 0 l 534 341 q 361 301 447 301 q 183 361 247 301 q 118 542 118 421 l 118 841 l -21 841 l -21 895 l 793 895 l 793 841 l 597 841 l 597 0 l 534 0 z "},"फ":{"ha":1074,"x_min":-21,"x_max":1095,"o":"m 584 0 l 522 0 l 522 363 q 362 329 440 329 q 182 389 246 329 q 118 570 118 449 l 118 841 l -21 841 l -21 895 l 1095 895 l 1095 841 l 584 841 l 584 463 q 773 520 676 520 q 930 459 871 520 q 990 310 990 397 q 897 42 990 164 l 843 65 q 934 311 934 182 q 890 420 934 378 q 777 463 847 463 q 676 444 727 463 q 584 393 625 425 l 584 0 m 348 385 q 522 430 438 385 l 522 841 l 180 841 l 180 558 q 348 385 180 385 z "},"ब":{"ha":798,"x_min":-21,"x_max":819,"o":"m 352 251 q 473 278 415 251 l 216 574 q 151 447 151 530 q 206 308 151 364 q 352 251 262 251 m 354 607 q 267 596 303 607 l 520 305 q 560 336 540 317 l 560 565 q 354 607 451 607 m 560 0 l 560 265 q 359 198 475 198 q 169 272 243 198 q 94 456 94 346 q 162 607 94 551 q 336 664 230 664 q 560 622 443 664 l 560 841 l -21 841 l -21 895 l 819 895 l 819 841 l 622 841 l 622 0 l 560 0 z "},"भ":{"ha":924,"x_min":26,"x_max":945,"o":"m 686 0 l 686 400 l 367 400 l 367 318 q 345 290 367 290 q 278 334 322 290 q 234 387 251 361 q 217 428 217 414 q 249 453 217 453 l 304 453 l 304 569 q 98 632 169 578 q 26 774 26 686 q 67 874 26 831 q 176 917 107 917 q 319 864 272 917 q 367 718 367 812 l 367 453 l 686 453 l 686 841 l 575 841 l 575 895 l 945 895 l 945 841 l 749 841 l 749 0 l 686 0 m 84 764 q 137 668 84 708 q 304 619 191 628 l 304 725 q 273 824 304 789 q 190 859 243 859 q 110 833 136 859 q 84 764 84 806 z "},"म":{"ha":816,"x_min":-21,"x_max":837,"o":"m 578 0 l 578 400 l 235 400 l 235 318 q 213 290 235 290 q 146 334 190 290 q 102 387 119 361 q 85 428 85 414 q 117 453 85 453 l 172 453 l 172 841 l -21 841 l -21 895 l 837 895 l 837 841 l 640 841 l 640 0 l 578 0 m 578 841 l 235 841 l 235 453 l 578 453 l 578 841 z "},"य":{"ha":848,"x_min":-21,"x_max":869,"o":"m 404 287 q 609 375 522 287 l 609 841 l 345 841 l 345 713 q 300 545 345 612 q 159 434 255 477 q 271 328 204 368 q 404 287 337 287 m 609 0 l 609 302 q 407 232 527 232 q 226 291 313 232 q 79 458 140 351 l 79 461 q 183 514 143 487 q 245 573 224 541 q 275 639 267 605 q 282 719 282 672 l 282 841 l -21 841 l -21 895 l 869 895 l 869 841 l 672 841 l 672 0 l 609 0 z "},"र":{"ha":574,"x_min":-21,"x_max":595,"o":"m 55 523 q 39 558 39 547 q 47 577 39 569 q 69 585 55 585 q 94 569 83 585 l 202 416 q 363 653 363 469 l 363 841 l -21 841 l -21 895 l 595 895 l 595 841 l 426 841 l 426 644 q 236 369 426 426 l 473 37 l 428 3 l 55 523 z "},"ऱ":{"ha":574,"x_min":-21,"x_max":595,"o":"m 75 -29 q 68 -21 75 -29 q 62 15 62 -13 q 75 59 62 43 q 113 74 88 74 q 151 59 137 74 q 164 15 164 43 q 151 -29 164 -13 q 113 -45 137 -45 q 75 -29 88 -45 m 55 523 q 39 558 39 547 q 47 577 39 569 q 69 585 55 585 q 94 569 83 585 l 202 416 q 363 653 363 469 l 363 841 l -21 841 l -21 895 l 595 895 l 595 841 l 426 841 l 426 644 q 236 369 426 426 l 473 37 l 428 3 l 55 523 z "},"ल":{"ha":994,"x_min":-21,"x_max":1015,"o":"m 756 0 l 756 543 l 427 248 l 388 289 l 542 428 q 427 528 483 497 q 303 558 370 558 q 190 510 237 558 q 143 386 143 462 q 188 238 143 310 q 345 66 233 166 l 302 29 q 138 218 190 133 q 86 397 86 303 q 146 554 86 492 q 305 615 207 615 q 449 580 382 615 q 584 466 516 544 l 756 621 l 756 841 l -21 841 l -21 895 l 1015 895 l 1015 841 l 819 841 l 819 0 l 756 0 z "},"ळ":{"ha":1103,"x_min":-21,"x_max":1124,"o":"m 777 171 q 900 226 852 171 q 948 367 948 282 q 898 509 948 453 q 781 565 849 565 q 661 513 713 565 q 568 357 609 461 q 535 284 549 311 q 658 199 595 228 q 777 171 721 171 m 298 171 q 514 374 429 171 q 549 449 530 411 q 428 537 484 510 q 316 565 372 565 q 190 509 239 565 q 141 363 141 453 q 189 222 141 272 q 298 171 237 171 m 781 116 q 643 146 707 116 q 508 238 579 176 q 309 116 428 116 q 151 183 218 116 q 84 364 84 251 q 148 550 84 478 q 309 622 213 622 q 447 590 383 622 q 576 496 510 558 q 780 622 659 622 q 865 605 827 622 l 865 841 l -21 841 l -21 895 l 1124 895 l 1124 841 l 928 841 l 928 563 q 1002 359 1002 489 q 938 182 1002 247 q 781 116 874 116 z "},"ऴ":{"ha":1103,"x_min":-21,"x_max":1124,"o":"m 116 -64 q 109 -56 116 -64 q 103 -20 103 -48 q 116 24 103 8 q 153 39 129 39 q 191 24 178 39 q 205 -20 205 8 q 191 -64 205 -48 q 153 -80 178 -80 q 116 -64 129 -80 m 777 171 q 900 226 852 171 q 948 367 948 282 q 898 509 948 453 q 781 565 849 565 q 661 513 713 565 q 568 357 609 461 q 535 284 549 311 q 658 199 595 228 q 777 171 721 171 m 298 171 q 514 374 429 171 q 549 449 530 411 q 428 537 484 510 q 316 565 372 565 q 190 509 239 565 q 141 363 141 453 q 189 222 141 272 q 298 171 237 171 m 781 116 q 643 146 707 116 q 508 238 579 176 q 309 116 428 116 q 151 183 218 116 q 84 364 84 251 q 148 550 84 478 q 309 622 213 622 q 447 590 383 622 q 576 496 510 558 q 780 622 659 622 q 865 605 827 622 l 865 841 l -21 841 l -21 895 l 1124 895 l 1124 841 l 928 841 l 928 563 q 1002 359 1002 489 q 938 182 1002 247 q 781 116 874 116 z "},"व":{"ha":798,"x_min":-21,"x_max":819,"o":"m 352 253 q 560 337 466 253 l 560 565 q 352 607 451 607 q 202 562 253 607 q 151 441 151 518 q 206 308 151 364 q 352 253 262 253 m 560 0 l 560 268 q 358 199 474 199 q 169 273 243 199 q 94 456 94 347 q 162 607 94 551 q 336 663 230 663 q 560 621 443 663 l 560 841 l -21 841 l -21 895 l 819 895 l 819 841 l 622 841 l 622 0 l 560 0 z "},"श":{"ha":995,"x_min":84,"x_max":1016,"o":"m 133 294 q 84 352 84 294 q 104 416 84 386 q 151 447 123 447 q 245 373 188 447 q 378 451 324 402 q 454 565 433 501 q 186 625 273 569 q 100 774 100 681 q 143 874 100 832 q 264 916 185 916 q 448 839 374 916 q 522 647 522 762 q 501 535 522 588 q 446 443 481 482 q 281 326 376 365 l 516 51 l 472 13 l 223 307 q 133 294 176 294 m 157 763 q 233 660 157 699 q 466 617 310 620 q 468 647 468 637 q 411 795 468 732 q 271 859 355 859 q 184 831 211 859 q 157 763 157 804 m 757 0 l 757 841 l 583 841 l 583 895 l 1016 895 l 1016 841 l 819 841 l 819 0 l 757 0 z "},"ष":{"ha":772,"x_min":-21,"x_max":793,"o":"m 349 358 q 502 391 431 358 l 178 787 l 178 530 q 349 358 178 358 m 534 841 l 206 841 l 534 440 l 534 841 m 534 0 l 534 341 q 361 301 447 301 q 183 361 247 301 q 118 542 118 421 l 118 841 l -21 841 l -21 895 l 793 895 l 793 841 l 597 841 l 597 0 l 534 0 z "},"स":{"ha":982,"x_min":-21,"x_max":1003,"o":"m 744 0 l 744 411 q 583 388 678 388 q 339 436 464 388 q 233 373 297 395 l 473 37 l 428 3 l 55 523 q 39 558 39 547 q 47 577 39 569 q 69 585 55 585 q 94 569 83 585 l 199 421 q 349 653 349 475 l 349 841 l -21 841 l -21 895 l 1003 895 l 1003 841 l 807 841 l 807 0 l 744 0 m 374 482 q 575 444 481 444 q 744 470 669 444 l 744 841 l 411 841 l 411 644 q 374 482 411 547 z "},"ह":{"ha":803,"x_min":-21,"x_max":824,"o":"m 175 191 q 222 339 175 276 q 126 418 160 371 q 92 519 92 466 q 140 627 92 586 q 289 668 189 668 l 566 668 l 566 841 l -21 841 l -21 895 l 824 895 l 824 841 l 628 841 l 628 614 l 282 614 q 181 586 216 614 q 147 513 147 558 q 261 380 147 423 q 440 436 329 436 q 618 380 550 436 q 685 238 685 324 q 641 93 685 163 l 589 112 q 630 232 630 169 q 579 338 630 296 q 435 380 529 379 q 287 324 342 381 q 232 183 232 268 q 327 6 232 77 q 624 -88 421 -65 l 608 -140 q 285 -32 395 -119 q 175 191 175 55 z "},"ऺ":{"ha":0,"x_min":-240,"x_max":-178,"o":"m -240 1043 l -178 1043 l -178 864 l -240 864 l -240 1043 z "},"ऻ":{"ha":398,"x_min":-21,"x_max":419,"o":"m 160 0 l 160 841 l -21 841 l -21 895 l 160 895 l 160 1040 l 223 1040 l 223 895 l 419 895 l 419 841 l 223 841 l 223 0 l 160 0 z "},"़":{"ha":0,"x_min":-590,"x_max":-487,"o":"m -576 -251 q -583 -243 -576 -251 q -590 -207 -590 -235 q -576 -163 -590 -179 q -539 -147 -563 -147 q -501 -163 -515 -147 q -487 -207 -487 -179 q -501 -251 -487 -235 q -539 -267 -515 -267 q -576 -251 -563 -267 z "},"ऽ":{"ha":730,"x_min":89,"x_max":635,"o":"m 635 297 q 566 140 635 197 q 395 84 498 84 q 245 111 316 84 q 89 199 175 137 l 111 253 q 385 143 252 143 q 526 186 474 143 q 577 303 577 230 q 370 518 577 421 q 213 623 264 568 q 163 744 163 678 q 212 853 163 811 q 365 895 261 895 l 604 895 l 604 841 l 376 841 q 223 737 223 841 q 263 651 223 690 q 416 558 303 612 q 635 297 635 454 z "},"ा":{"ha":398,"x_min":-21,"x_max":419,"o":"m 160 0 l 160 841 l -21 841 l -21 895 l 419 895 l 419 841 l 223 841 l 223 0 l 160 0 z "},"ि":{"ha":398,"x_min":-21,"x_max":867,"o":"m 160 0 l 160 841 l -21 841 l -21 895 l 160 895 l 160 954 q 235 1138 160 1063 q 331 1195 271 1174 q 467 1217 390 1217 q 867 1102 665 1217 l 852 1051 q 480 1158 665 1158 q 361 1141 411 1158 q 280 1095 310 1125 q 223 948 223 1039 l 223 895 l 419 895 l 419 841 l 223 841 l 223 0 l 160 0 z "},"ी":{"ha":398,"x_min":-299,"x_max":419,"o":"m 160 0 l 160 841 l -21 841 l -21 895 l 154 895 q 29 1093 105 1020 q -125 1166 -46 1166 q -212 1132 -181 1166 q -242 1048 -242 1098 q -180 885 -242 967 l -246 885 q -299 1052 -299 978 q -254 1174 -299 1126 q -132 1222 -209 1222 q 63 1140 -27 1222 q 216 895 153 1057 l 419 895 l 419 841 l 223 841 l 223 0 l 160 0 z "},"ु":{"ha":0,"x_min":-595,"x_max":-10,"o":"m -204 9 q -66 -42 -123 9 q -10 -175 -10 -93 q -70 -307 -10 -258 q -222 -355 -129 -356 q -400 -322 -314 -354 q -595 -222 -487 -289 l -577 -171 q -234 -301 -369 -301 q -109 -264 -155 -301 q -63 -172 -63 -228 q -103 -82 -63 -117 q -202 -48 -143 -48 q -365 -121 -290 -48 l -397 -77 q -204 9 -305 9 z "},"ू":{"ha":0,"x_min":-399,"x_max":191,"o":"m -209 -338 q -345 -288 -291 -338 q -399 -165 -399 -238 q -348 -42 -399 -91 q -207 7 -298 7 q -18 -55 -116 7 q 191 -256 81 -117 l 159 -296 q -206 -50 -41 -50 q -305 -85 -269 -50 q -342 -170 -342 -120 q -305 -252 -342 -220 q -207 -284 -268 -284 q -86 -258 -147 -284 l -61 -309 q -139 -333 -111 -327 q -209 -338 -168 -338 z "},"ृ":{"ha":0,"x_min":-434,"x_max":-90,"o":"m -90 -282 q -250 -317 -171 -317 q -381 -272 -329 -317 q -434 -156 -434 -228 q -380 -38 -434 -84 q -239 7 -327 7 l -176 7 l -176 -44 l -232 -44 q -343 -77 -303 -44 q -383 -159 -383 -110 q -347 -237 -383 -209 q -255 -266 -311 -266 q -101 -232 -178 -266 l -90 -282 z "},"ॄ":{"ha":0,"x_min":-410,"x_max":-74,"o":"m -74 -409 q -196 -438 -134 -438 q -297 -404 -258 -438 q -337 -324 -337 -371 q -307 -248 -337 -277 q -383 -202 -355 -235 q -410 -126 -410 -169 q -364 -32 -410 -70 q -238 7 -318 7 l -176 7 l -176 -44 l -235 -44 q -329 -70 -298 -44 q -361 -130 -361 -95 q -333 -185 -361 -165 q -255 -206 -305 -206 q -136 -181 -204 -206 l -125 -230 q -239 -254 -190 -251 q -287 -327 -287 -275 q -262 -374 -287 -355 q -190 -392 -237 -392 q -85 -362 -142 -392 l -74 -409 z "},"ॅ":{"ha":0,"x_min":-451,"x_max":23,"o":"m -206 1008 q -451 1116 -347 1008 l -430 1168 q -212 1066 -335 1066 q -4 1167 -88 1066 l 23 1123 q -79 1038 -20 1068 q -206 1008 -138 1008 z "},"ॆ":{"ha":0,"x_min":-669,"x_max":-178,"o":"m -178 873 l -240 873 l -240 981 q -261 1050 -240 1026 q -312 1074 -282 1074 q -401 1056 -342 1074 q -506 1039 -461 1039 q -590 1060 -550 1039 q -669 1123 -629 1080 l -643 1168 q -570 1112 -600 1128 q -507 1096 -539 1096 q -411 1116 -475 1096 q -311 1135 -348 1135 q -216 1096 -253 1135 q -178 988 -178 1057 l -178 873 z "},"े":{"ha":0,"x_min":-583,"x_max":-156,"o":"m -156 873 l -237 873 l -583 1203 l -540 1245 l -156 873 z "},"ै":{"ha":0,"x_min":-734,"x_max":-173,"o":"m -239 873 l -333 873 l -734 1130 l -703 1183 l -244 882 l -404 1255 l -347 1277 l -173 873 l -239 873 l -239 873 z "},"ॉ":{"ha":398,"x_min":-57,"x_max":419,"o":"m 160 0 l 160 841 l -21 841 l -21 895 l 419 895 l 419 841 l 223 841 l 223 0 l 160 0 m 189 1008 q -57 1116 48 1008 l -35 1168 q 183 1066 60 1066 q 390 1167 306 1066 l 418 1123 q 316 1038 375 1068 q 189 1008 257 1008 z "},"ॊ":{"ha":398,"x_min":-269,"x_max":419,"o":"m 160 0 l 160 841 l -21 841 l -21 895 l 160 895 l 160 981 q 139 1050 160 1026 q 88 1074 119 1074 q -1 1056 58 1074 q -105 1039 -60 1039 q -190 1060 -150 1039 q -269 1123 -229 1080 l -243 1168 q -170 1112 -200 1128 q -107 1096 -139 1096 q -11 1116 -74 1096 q 89 1135 53 1135 q 185 1096 147 1135 q 223 988 223 1057 l 223 895 l 419 895 l 419 841 l 223 841 l 223 0 l 160 0 z "},"ो":{"ha":398,"x_min":-188,"x_max":419,"o":"m 160 0 l 160 841 l -21 841 l -21 895 l 136 895 l -188 1203 l -145 1245 l 217 895 l 419 895 l 419 841 l 223 841 l 223 0 l 160 0 z "},"ौ":{"ha":398,"x_min":-341,"x_max":419,"o":"m 160 0 l 160 841 l -21 841 l -21 895 l 27 895 l -341 1130 l -310 1183 l 131 895 l 145 895 l -11 1255 l 46 1277 l 211 895 l 419 895 l 419 841 l 223 841 l 223 0 l 160 0 z "},"्":{"ha":0,"x_min":-278,"x_max":61,"o":"m -278 -115 l -253 -70 l 61 -239 l 36 -284 l -278 -115 z "},"ॎ":{"ha":398,"x_min":160,"x_max":419,"o":"m 160 0 l 160 895 l 419 895 l 419 841 l 223 841 l 223 0 l 160 0 z "},"ॏ":{"ha":398,"x_min":-376,"x_max":419,"o":"m 160 0 l 160 841 l -21 841 l -21 895 l 128 895 l 105 926 q 52 980 78 963 q -6 996 25 996 q -101 982 -38 996 q -198 969 -164 969 q -376 1051 -300 969 l -352 1097 q -201 1027 -278 1027 q -107 1043 -176 1027 q 3 1058 -39 1058 q 160 951 87 1058 l 160 1071 q 144 1130 160 1109 q 101 1152 128 1152 q 25 1138 74 1152 q -58 1125 -23 1125 q -218 1201 -145 1125 l -194 1246 q -60 1182 -126 1182 q 17 1197 -35 1182 q 103 1212 70 1212 q 189 1176 156 1212 q 223 1076 223 1140 l 223 895 l 419 895 l 419 841 l 223 841 l 223 0 l 160 0 z "},"ॐ":{"ha":1340,"x_min":112,"x_max":1287,"o":"m 386 121 q 112 231 249 121 l 132 284 q 379 178 259 178 q 507 223 459 178 q 555 336 555 268 q 425 520 555 454 q 261 495 357 495 l 256 495 l 244 547 l 248 547 q 455 594 383 547 q 527 713 527 642 q 487 809 527 772 q 372 845 447 845 q 183 784 271 845 l 160 836 q 364 899 256 899 q 528 849 473 899 q 583 713 583 798 q 483 546 583 606 q 607 381 589 479 q 633 378 619 378 q 726 420 683 378 q 807 550 768 461 q 921 729 861 673 q 1058 786 981 786 q 1222 716 1157 786 q 1287 530 1287 645 q 1221 349 1287 415 q 1060 282 1154 282 q 793 409 942 282 q 640 325 731 325 q 612 327 627 325 q 549 181 612 240 q 386 121 487 121 m 1051 338 q 1182 393 1132 338 q 1233 535 1233 449 q 1184 675 1233 622 q 1069 729 1135 729 q 957 683 1003 729 q 862 533 910 637 q 822 454 841 488 q 1051 338 951 338 m 792 874 q 546 982 651 874 l 568 1034 q 786 932 663 932 q 994 1033 909 932 l 1021 989 q 919 904 978 934 q 792 874 860 874 m 783 1042 q 738 1097 738 1042 q 783 1152 738 1152 q 829 1097 829 1152 q 783 1042 829 1042 z "},"॑":{"ha":0,"x_min":-240,"x_max":-178,"o":"m -240 1206 l -178 1206 l -178 1027 l -240 1027 l -240 1206 z "},"॒":{"ha":0,"x_min":-619,"x_max":-176,"o":"m -176 -122 l -619 -122 l -619 -69 l -176 -69 l -176 -122 z "},"॓":{"ha":0,"x_min":-354,"x_max":-159,"o":"m -251 1273 l -159 1030 l -209 1030 l -354 1273 l -251 1273 z "},"॔":{"ha":0,"x_min":-231,"x_max":-38,"o":"m -231 1030 l -140 1273 l -38 1273 l -183 1030 l -231 1030 z "},"ॕ":{"ha":0,"x_min":-648,"x_max":-173,"o":"m -190 1030 l -633 1030 l -633 1083 l -190 1083 l -190 1030 m -173 1236 q -403 1133 -262 1133 q -648 1229 -543 1133 l -626 1275 q -408 1185 -531 1185 q -201 1274 -286 1185 l -173 1236 z "},"ॖ":{"ha":0,"x_min":-471,"x_max":60,"o":"m -197 -256 q -471 -149 -350 -256 l -449 -98 q -200 -196 -339 -196 q 36 -93 -60 -196 l 60 -142 q -55 -226 11 -196 q -197 -256 -121 -256 z "},"ॗ":{"ha":0,"x_min":-485,"x_max":73,"o":"m -197 -398 q -485 -302 -357 -398 l -461 -256 q -200 -344 -347 -344 q 48 -252 -54 -344 l 73 -296 q -48 -371 22 -345 q -197 -398 -118 -398 m -197 -243 q -471 -145 -349 -243 l -449 -98 q -200 -188 -339 -188 q 36 -93 -60 -188 l 60 -138 q -55 -216 11 -188 q -197 -243 -121 -243 z "},"क़":{"ha":1066,"x_min":-21,"x_max":1087,"o":"m 106 -29 q 99 -21 106 -29 q 93 15 93 -13 q 106 59 93 43 q 144 74 119 74 q 182 59 168 74 q 195 15 195 43 q 182 -29 195 -13 q 144 -45 168 -45 q 106 -29 119 -45 m 576 0 l 514 0 l 514 276 q 306 200 425 200 q 146 266 209 200 q 84 437 84 333 q 142 576 84 521 q 306 632 201 632 q 514 575 412 632 l 514 841 l -21 841 l -21 895 l 1087 895 l 1087 841 l 576 841 l 576 529 q 670 573 617 555 q 772 590 723 590 q 930 529 871 590 q 990 380 990 468 q 899 126 990 247 l 845 149 q 934 381 934 265 q 890 490 934 448 q 777 533 847 533 q 672 512 726 533 q 576 458 618 491 l 576 0 m 303 253 q 514 347 420 253 l 514 515 q 310 576 417 576 q 183 534 227 576 q 139 420 139 493 q 185 300 139 346 q 303 253 230 253 z "},"ख़":{"ha":1154,"x_min":-21,"x_max":1175,"o":"m 98 -29 q 91 -21 98 -29 q 84 15 84 -13 q 98 59 84 43 q 135 74 111 74 q 173 59 159 74 q 187 15 187 43 q 173 -29 187 -13 q 135 -45 159 -45 q 98 -29 111 -45 m 916 0 l 916 110 q 666 64 819 64 q 247 230 414 64 q 156 346 205 272 q 80 470 107 419 q 53 535 53 521 q 60 555 53 548 q 78 562 67 562 q 114 534 98 562 l 160 449 q 293 541 257 485 q 329 695 329 596 l 329 841 l -21 841 l -21 895 l 1175 895 l 1175 841 l 979 841 l 979 0 l 916 0 m 751 369 q 916 428 841 369 l 916 582 q 761 621 840 621 q 644 586 681 621 q 607 496 607 550 q 647 406 607 442 q 751 369 687 369 m 659 119 q 916 171 808 119 l 916 364 q 755 317 843 317 q 610 371 667 317 q 553 502 553 426 q 605 626 553 579 q 746 673 657 673 q 916 638 836 673 l 916 841 l 392 841 l 392 686 q 383 599 392 638 q 352 522 374 560 q 188 398 310 444 q 300 256 235 321 q 462 155 365 191 q 659 119 558 119 z "},"ग़":{"ha":831,"x_min":-21,"x_max":852,"o":"m 183 -29 q 176 -21 183 -29 q 169 15 169 -13 q 183 59 169 43 q 220 74 196 74 q 258 59 244 74 q 272 15 272 43 q 258 -29 272 -13 q 220 -45 244 -45 q 183 -29 196 -45 m 593 0 l 593 841 l 270 841 l 270 339 q 264 318 270 324 q 241 312 258 312 q 172 370 223 312 q 120 449 120 428 q 152 473 120 473 l 207 473 l 207 841 l -21 841 l -21 895 l 852 895 l 852 841 l 655 841 l 655 0 l 593 0 z "},"ज़":{"ha":1068,"x_min":-21,"x_max":1089,"o":"m 91 -29 q 85 -21 91 -29 q 78 15 78 -13 q 91 59 78 43 q 129 74 105 74 q 167 59 153 74 q 180 15 180 43 q 167 -29 180 -13 q 129 -45 153 -45 q 91 -29 105 -45 m 830 0 l 830 569 l 473 569 q 586 467 543 529 q 629 334 629 404 q 575 194 629 249 q 428 140 522 140 q 71 424 240 140 l 107 468 q 423 196 268 196 q 535 235 496 196 q 574 342 574 275 q 510 476 574 409 q 342 574 446 542 l 342 622 l 830 622 l 830 841 l -21 841 l -21 895 l 1089 895 l 1089 841 l 892 841 l 892 0 l 830 0 z "},"ड़":{"ha":788,"x_min":-21,"x_max":809,"o":"m 376 -202 q 370 -194 376 -202 q 363 -158 363 -186 q 376 -114 363 -130 q 414 -98 390 -98 q 452 -114 438 -98 q 466 -158 466 -130 q 452 -202 466 -186 q 414 -218 438 -218 q 376 -202 390 -218 m 439 43 q 266 65 345 43 q 98 138 187 87 l 114 192 q 432 95 262 95 q 580 139 529 95 q 631 255 631 183 q 587 348 631 315 q 458 382 542 382 q 282 334 374 382 l 279 334 q 164 417 203 369 q 125 524 125 466 q 173 625 125 582 q 318 668 221 668 l 550 668 l 550 841 l -21 841 l -21 895 l 809 895 l 809 841 l 612 841 l 612 614 l 312 614 q 212 586 245 614 q 180 518 180 558 q 206 445 180 477 q 277 393 232 413 q 471 437 378 437 q 625 387 564 437 q 686 247 686 337 q 619 100 686 157 q 439 43 552 43 z "},"ढ़":{"ha":769,"x_min":-21,"x_max":790,"o":"m 401 -188 q 394 -180 401 -188 q 388 -144 388 -172 q 401 -100 388 -116 q 439 -84 414 -84 q 476 -100 463 -84 q 490 -144 490 -116 q 476 -188 490 -172 q 439 -204 463 -204 q 401 -188 414 -204 m 451 108 q 600 141 553 108 q 647 223 647 173 q 618 289 647 263 q 534 316 588 316 q 450 285 480 316 q 421 204 421 254 q 450 108 421 153 l 451 108 m 469 57 q 315 83 385 57 q 197 153 244 110 q 124 255 150 197 q 98 376 98 312 q 179 555 98 489 q 393 622 261 622 l 531 622 l 531 841 l -21 841 l -21 895 l 790 895 l 790 841 l 593 841 l 593 569 l 428 569 q 228 515 298 569 q 158 356 158 461 q 223 201 158 270 q 391 113 289 131 q 366 215 366 162 q 409 326 366 282 q 530 370 453 370 q 654 326 607 370 q 701 215 701 282 q 640 103 701 148 q 469 57 579 57 z "},"फ़":{"ha":1074,"x_min":-21,"x_max":1095,"o":"m 150 19 q 144 27 150 19 q 137 63 137 35 q 150 107 137 91 q 188 123 164 123 q 226 107 212 123 q 239 63 239 91 q 226 19 239 35 q 188 4 212 4 q 150 19 164 4 m 584 0 l 522 0 l 522 363 q 362 329 440 329 q 182 389 246 329 q 118 570 118 449 l 118 841 l -21 841 l -21 895 l 1095 895 l 1095 841 l 584 841 l 584 463 q 773 520 676 520 q 930 459 871 520 q 990 310 990 397 q 897 42 990 164 l 843 65 q 934 311 934 182 q 890 420 934 378 q 777 463 847 463 q 676 444 727 463 q 584 393 625 425 l 584 0 m 348 385 q 522 430 438 385 l 522 841 l 180 841 l 180 558 q 348 385 180 385 z "},"य़":{"ha":848,"x_min":-21,"x_max":869,"o":"m 139 18 q 132 26 139 18 q 126 62 126 34 q 139 106 126 90 q 177 121 152 121 q 215 106 201 121 q 228 62 228 90 q 215 18 228 34 q 177 2 201 2 q 139 18 152 2 m 404 287 q 609 375 522 287 l 609 841 l 345 841 l 345 713 q 300 545 345 612 q 159 434 255 477 q 271 328 204 368 q 404 287 337 287 m 609 0 l 609 302 q 407 232 527 232 q 226 291 313 232 q 79 458 140 351 l 79 461 q 183 514 143 487 q 245 573 224 541 q 275 639 267 605 q 282 719 282 672 l 282 841 l -21 841 l -21 895 l 869 895 l 869 841 l 672 841 l 672 0 l 609 0 z "},"ॠ":{"ha":1095,"x_min":-21,"x_max":1116,"o":"m 1072 24 q 947 -4 1015 -4 q 832 34 878 -4 q 786 135 786 73 q 934 298 786 236 l 834 437 q 640 382 745 382 q 576 386 608 382 l 576 0 l 513 0 l 513 334 l 164 147 l 132 196 l 513 398 l 513 407 l 405 480 q 288 547 333 529 q 196 565 243 565 q 83 536 148 565 l 62 588 q 204 622 140 622 q 442 520 293 622 l 513 473 l 513 841 l -21 841 l -21 895 l 1116 895 l 1116 841 l 576 841 l 576 440 q 638 437 609 437 q 796 483 732 437 q 777 526 777 508 q 837 564 777 565 q 891 552 870 563 q 911 520 911 541 q 876 467 911 499 l 998 288 l 992 268 q 872 205 906 237 q 838 132 838 172 q 867 69 838 92 q 950 46 897 46 q 1060 74 1003 46 l 1072 24 z "},"ॡ":{"ha":1020,"x_min":-21,"x_max":1041,"o":"m 939 -202 q 817 -231 878 -231 q 715 -197 755 -231 q 675 -117 675 -164 q 704 -40 675 -70 q 629 6 657 -27 q 602 81 602 38 q 649 176 602 138 q 777 214 696 214 l 803 214 q 880 403 880 314 q 842 520 880 476 q 734 565 805 565 q 588 490 652 565 q 501 268 525 415 l 449 289 q 509 474 467 397 q 308 565 412 565 q 190 517 237 565 q 143 400 143 469 q 189 241 143 317 q 345 66 235 165 l 302 29 q 139 220 192 131 q 86 404 86 309 q 146 561 86 499 q 305 622 207 622 q 539 521 433 622 q 713 621 611 615 l 713 841 l -21 841 l -21 895 l 1041 895 l 1041 841 l 776 841 l 776 618 q 893 544 852 603 q 935 401 935 485 q 834 163 935 286 l 782 163 q 684 138 717 163 q 652 78 652 113 q 679 22 652 42 q 758 1 707 1 q 876 26 808 1 l 888 -23 q 774 -47 822 -44 q 725 -119 725 -68 q 750 -166 725 -148 q 823 -185 775 -185 q 928 -155 871 -185 l 939 -202 z "},"ॢ":{"ha":0,"x_min":-477,"x_max":27,"o":"m 27 -313 q -53 -331 -8 -331 q -127 -308 -98 -331 q -157 -250 -157 -284 q -130 -191 -157 -215 q -54 -164 -103 -168 q -17 -67 -17 -117 q -37 -13 -17 -37 q -98 10 -57 10 q -172 -25 -139 10 q -222 -121 -205 -60 l -263 -107 q -232 -32 -252 -63 q -347 27 -280 27 q -407 4 -384 27 q -430 -57 -430 -20 q -408 -130 -430 -94 q -324 -216 -385 -166 l -358 -241 q -477 -52 -477 -143 q -442 36 -477 1 q -345 71 -407 71 q -207 3 -268 71 q -98 54 -158 54 q -6 18 -38 54 q 25 -71 25 -18 q -29 -200 25 -137 q -117 -250 -117 -200 q -52 -296 -117 -296 q 21 -278 -20 -296 l 27 -313 z "},"ॣ":{"ha":0,"x_min":-477,"x_max":53,"o":"m 53 -423 q -16 -440 25 -440 q -81 -420 -57 -440 q -105 -373 -105 -400 q -92 -330 -105 -347 q -138 -300 -121 -321 q -155 -250 -155 -279 q -129 -196 -155 -220 q -55 -166 -103 -171 q -17 -67 -17 -118 q -37 -13 -17 -37 q -98 10 -57 10 q -172 -25 -139 10 q -222 -121 -205 -60 l -263 -107 q -232 -32 -252 -63 q -347 27 -280 27 q -407 4 -384 27 q -430 -57 -430 -20 q -408 -130 -430 -94 q -324 -216 -385 -166 l -358 -241 q -477 -52 -477 -143 q -442 36 -477 1 q -345 71 -407 71 q -207 3 -268 71 q -98 54 -158 54 q -6 18 -38 54 q 25 -71 25 -18 q -29 -200 25 -137 l -34 -200 q -95 -217 -75 -200 q -115 -255 -115 -233 q -99 -288 -115 -276 q -57 -300 -83 -300 q 15 -284 -32 -300 l 22 -320 q -46 -336 -19 -334 q -67 -371 -67 -347 q -18 -407 -67 -407 q 46 -390 13 -407 l 53 -423 z "},"।":{"ha":435,"x_min":267,"x_max":329,"o":"m 329 -98 l 267 -98 l 267 971 l 329 971 l 329 -98 z "},"॥":{"ha":753,"x_min":267,"x_max":648,"o":"m 648 -98 l 586 -98 l 586 971 l 648 971 l 648 -98 m 329 -98 l 267 -98 l 267 971 l 329 971 l 329 -98 z "},"०":{"ha":755,"x_min":91,"x_max":664,"o":"m 373 712 q 322 712 373 712 q 210 645 272 712 q 148 477 148 578 q 217 308 148 376 q 385 240 286 240 q 545 307 484 240 q 607 474 607 374 q 540 643 607 574 q 373 712 473 712 m 91 491 q 111 593 91 543 q 165 681 130 642 q 253 744 199 720 q 370 767 307 767 q 582 681 501 767 q 664 470 664 596 q 631 328 664 392 q 534 224 598 263 q 385 185 470 185 q 174 271 258 185 q 91 491 91 357 z "},"१":{"ha":569,"x_min":84,"x_max":492,"o":"m 285 846 q 252 846 285 846 q 179 806 218 846 q 140 706 140 767 q 200 600 140 645 q 370 550 261 555 q 423 626 408 591 q 438 700 438 660 q 395 805 438 763 q 285 846 352 846 m 393 -39 q 428 42 428 6 q 374 121 428 79 l 122 312 l 122 322 q 321 501 318 499 q 324 505 323 503 q 149 576 214 516 q 84 714 84 636 q 139 846 84 793 q 284 901 194 900 q 433 842 374 902 q 492 697 492 783 q 373 477 492 587 l 202 317 l 414 152 q 479 43 478 103 q 442 -54 480 -8 l 393 -39 z "},"२":{"ha":648,"x_min":77,"x_max":572,"o":"m 177 316 q 132 356 132 316 q 159 418 132 381 q 209 456 187 456 q 246 441 231 456 q 283 385 261 426 q 452 482 385 413 q 520 637 520 552 q 462 777 520 723 q 310 831 404 831 q 100 769 195 831 l 77 822 q 305 885 185 885 q 499 815 426 885 q 572 637 572 744 q 496 450 572 530 q 308 336 420 371 l 533 -32 l 484 -62 l 251 323 q 177 316 216 316 z "},"३":{"ha":611,"x_min":65,"x_max":534,"o":"m 107 163 q 136 216 107 187 q 188 244 164 244 q 227 226 212 244 q 257 165 242 207 q 422 218 362 169 q 482 336 482 266 q 435 454 482 407 q 306 501 387 501 q 154 475 226 501 l 142 528 q 305 555 224 555 q 354 550 331 555 q 418 618 396 578 q 440 706 440 659 q 398 793 440 754 q 285 832 357 832 q 88 770 183 832 l 65 822 q 286 887 169 887 q 378 870 337 887 q 442 826 418 852 q 492 704 492 770 q 472 610 492 655 q 413 533 451 565 q 502 454 471 507 q 534 334 534 400 q 464 183 534 243 q 276 114 395 122 l 354 -39 l 303 -58 l 217 114 q 107 163 107 118 z "},"४":{"ha":708,"x_min":30,"x_max":699,"o":"m 237 249 q 237 225 237 249 q 273 166 237 201 q 369 131 310 131 q 463 164 428 131 q 499 251 499 198 q 473 341 499 292 q 366 478 448 388 q 260 343 284 388 q 237 249 237 297 m 556 242 q 506 126 556 175 q 371 77 456 77 q 233 131 287 77 q 179 253 179 186 q 206 365 179 309 q 326 522 236 426 l 30 843 l 72 885 l 364 564 l 657 886 l 699 847 l 404 520 l 411 512 q 524 359 492 422 q 556 242 556 296 z "},"५":{"ha":730,"x_min":107,"x_max":768,"o":"m 560 404 l 554 386 q 560 404 558 397 m 547 284 q 355 212 459 212 q 179 279 251 212 q 107 461 107 345 q 350 876 107 680 l 397 838 q 223 653 282 751 q 164 454 164 555 q 218 318 164 368 q 350 268 272 268 q 520 336 453 268 q 481 425 481 397 q 497 450 481 440 q 550 460 513 460 q 614 447 588 460 q 641 414 641 435 q 589 324 641 381 l 768 -40 l 716 -61 l 547 284 z "},"६":{"ha":640,"x_min":83,"x_max":654,"o":"m 402 112 q 218 176 288 112 q 149 337 149 239 q 202 475 149 415 q 115 561 147 510 q 83 675 83 612 q 152 816 83 756 q 251 864 187 846 q 400 882 315 882 l 418 829 q 198 780 263 829 q 138 666 138 736 q 244 510 138 574 q 471 570 330 570 l 494 518 q 274 464 343 518 q 204 322 204 409 q 259 212 204 260 q 397 165 314 165 q 496 181 450 165 q 475 245 475 221 q 531 280 475 280 q 606 266 576 280 q 636 232 636 251 q 619 192 636 213 q 570 154 601 171 l 654 -33 l 602 -54 l 520 131 q 402 112 465 112 z "},"७":{"ha":801,"x_min":112,"x_max":724,"o":"m 384 543 q 654 336 384 398 q 668 429 668 381 q 618 593 668 525 q 500 661 569 661 q 414 629 444 661 q 384 543 384 598 m 439 107 q 200 216 287 107 q 112 532 112 325 q 129 712 112 617 q 171 881 146 807 l 227 860 q 170 506 170 683 q 191 354 170 421 q 249 247 213 287 q 425 164 324 164 q 547 197 493 164 q 633 286 602 229 q 400 390 476 319 q 324 543 324 461 q 369 672 324 626 q 490 719 413 719 q 657 636 590 719 q 724 411 724 553 q 687 261 724 331 q 584 150 650 192 q 439 107 517 107 z "},"८":{"ha":683,"x_min":86,"x_max":661,"o":"m 145 317 q 201 203 145 250 q 336 157 256 156 q 484 186 416 158 q 629 280 552 215 l 661 230 q 506 131 581 161 q 348 100 430 100 q 158 164 230 100 q 86 328 86 228 q 114 453 86 393 q 205 581 142 513 l 482 878 l 525 840 l 249 537 q 169 423 192 473 q 145 317 145 374 z "},"९":{"ha":632,"x_min":70,"x_max":545,"o":"m 129 683 q 151 591 129 634 q 219 494 173 548 q 451 690 451 527 q 407 798 451 752 q 292 845 363 845 q 175 797 220 845 q 129 683 129 749 m 490 63 q 477 107 490 84 q 432 166 463 130 l 199 434 q 101 568 133 510 q 70 695 70 626 q 130 838 70 777 q 288 899 190 899 q 448 836 387 899 q 509 681 509 772 q 442 529 509 591 q 259 449 375 467 l 470 206 q 545 61 545 121 q 497 -49 545 2 l 447 -25 q 490 63 490 20 z "},"॰":{"ha":464,"x_min":28,"x_max":422,"o":"m 224 301 q 254 301 224 301 q 327 338 284 301 q 369 434 369 376 q 326 530 369 492 q 223 568 282 568 q 123 530 164 568 q 81 435 81 493 q 123 339 81 376 q 224 301 164 301 m 363 567 q 393 540 363 567 q 422 431 422 513 q 366 298 422 350 q 229 246 310 246 q 87 302 147 246 q 28 439 28 358 q 83 571 28 520 q 221 622 138 622 q 363 567 305 622 z "},"ॱ":{"ha":482,"x_min":192,"x_max":294,"o":"m 205 810 q 198 818 205 810 q 192 854 192 826 q 205 898 192 882 q 243 914 218 914 q 281 898 267 914 q 294 854 294 882 q 281 810 294 826 q 243 794 267 794 q 205 810 218 794 z "},"ॲ":{"ha":1065,"x_min":86,"x_max":1097,"o":"m 827 0 l 827 395 q 675 366 767 366 q 588 372 636 366 q 591 338 591 356 q 526 180 591 241 q 359 120 461 120 q 216 145 279 120 q 86 223 153 170 l 106 276 q 226 199 171 222 q 359 176 282 176 q 484 224 435 176 q 534 346 534 272 q 390 523 534 454 q 235 502 321 502 l 230 502 l 218 554 l 222 554 q 428 602 355 554 q 500 715 500 651 q 456 815 500 779 q 339 852 412 852 q 241 835 285 852 q 150 785 197 819 l 127 837 q 332 906 226 906 q 497 856 439 906 q 556 714 556 805 q 529 621 556 664 q 450 549 502 578 q 571 430 541 494 q 674 421 612 421 q 827 458 763 421 l 827 841 l 660 841 l 660 895 l 1086 895 l 1086 841 l 890 841 l 890 0 l 827 0 m 868 1008 q 622 1116 727 1008 l 644 1168 q 862 1066 739 1066 q 1069 1167 985 1066 l 1097 1123 q 995 1038 1054 1068 q 868 1008 936 1008 z "},"ॳ":{"ha":1065,"x_min":86,"x_max":1086,"o":"m 827 0 l 827 395 q 675 366 767 366 q 588 372 636 366 q 591 338 591 356 q 526 180 591 241 q 359 120 461 120 q 216 145 279 120 q 86 223 153 170 l 106 276 q 226 199 171 222 q 359 176 282 176 q 484 224 435 176 q 534 346 534 272 q 390 523 534 454 q 235 502 321 502 l 230 502 l 218 554 l 222 554 q 428 602 355 554 q 500 715 500 651 q 456 815 500 779 q 339 852 412 852 q 241 835 285 852 q 150 785 197 819 l 127 837 q 332 906 226 906 q 497 856 439 906 q 556 714 556 805 q 529 621 556 664 q 450 549 502 578 q 571 430 541 494 q 674 421 612 421 q 827 458 763 421 l 827 841 l 660 841 l 660 895 l 827 895 l 827 1040 l 890 1040 l 890 895 l 1086 895 l 1086 841 l 890 841 l 890 0 l 827 0 z "},"ॴ":{"ha":1449,"x_min":86,"x_max":1470,"o":"m 827 0 l 827 409 q 675 380 767 380 q 580 388 625 380 q 582 350 582 370 q 521 203 582 262 q 360 144 459 144 q 219 172 285 144 q 86 253 154 199 l 106 306 q 230 226 171 251 q 353 200 289 200 q 480 245 435 200 q 525 359 525 289 q 398 533 525 467 q 235 509 329 509 l 230 509 l 218 561 l 222 561 q 428 606 356 561 q 500 716 500 652 q 459 808 500 771 q 346 845 417 845 q 157 784 245 845 l 134 836 q 336 899 230 899 q 500 849 443 899 q 556 714 556 798 q 530 628 556 668 q 456 559 505 588 q 564 445 536 508 q 674 435 606 435 q 827 472 763 435 l 827 841 l 660 841 l 660 895 l 1213 895 l 1213 1040 l 1275 1040 l 1275 895 l 1470 895 l 1470 841 l 1275 841 l 1275 0 l 1213 0 l 1213 841 l 890 841 l 890 0 l 827 0 z "},"ॵ":{"ha":1449,"x_min":86,"x_max":1470,"o":"m 827 0 l 827 409 q 675 380 767 380 q 580 388 625 380 q 582 350 582 370 q 521 203 582 262 q 360 144 459 144 q 219 172 285 144 q 86 253 154 199 l 106 306 q 230 226 171 251 q 353 200 289 200 q 480 245 435 200 q 525 359 525 289 q 398 533 525 467 q 235 509 329 509 l 230 509 l 218 561 l 222 561 q 428 606 356 561 q 500 716 500 652 q 459 808 500 771 q 346 845 417 845 q 157 784 245 845 l 134 836 q 336 899 230 899 q 500 849 443 899 q 556 714 556 798 q 530 628 556 668 q 456 559 505 588 q 564 445 536 508 q 674 435 606 435 q 827 472 763 435 l 827 841 l 660 841 l 660 895 l 1181 895 l 1158 926 q 1104 980 1130 963 q 1047 996 1078 996 q 952 982 1015 996 q 855 969 889 969 q 677 1051 753 969 l 701 1097 q 852 1027 774 1027 q 945 1043 877 1027 q 1055 1058 1014 1058 q 1213 951 1139 1058 l 1213 1071 q 1196 1130 1213 1109 q 1153 1152 1180 1152 q 1078 1138 1126 1152 q 995 1125 1029 1125 q 835 1201 907 1125 l 859 1246 q 992 1182 926 1182 q 1070 1197 1017 1182 q 1155 1212 1122 1212 q 1242 1176 1208 1212 q 1275 1076 1275 1140 l 1275 895 l 1470 895 l 1470 841 l 1275 841 l 1275 0 l 1213 0 l 1213 841 l 890 841 l 890 0 l 827 0 z "},"ॶ":{"ha":1065,"x_min":86,"x_max":1086,"o":"m 583 -256 q 308 -149 430 -256 l 331 -98 q 580 -196 440 -196 q 815 -93 719 -196 l 840 -142 q 724 -226 791 -196 q 583 -256 658 -256 m 827 0 l 827 395 q 675 366 767 366 q 588 372 636 366 q 591 338 591 356 q 526 180 591 241 q 359 120 461 120 q 216 145 279 120 q 86 223 153 170 l 106 276 q 226 199 171 222 q 359 176 282 176 q 484 224 435 176 q 534 346 534 272 q 390 523 534 454 q 235 502 321 502 l 230 502 l 218 554 l 222 554 q 428 602 355 554 q 500 715 500 651 q 456 815 500 779 q 339 852 412 852 q 241 835 285 852 q 150 785 197 819 l 127 837 q 332 906 226 906 q 497 856 439 906 q 556 714 556 805 q 529 621 556 664 q 450 549 502 578 q 571 430 541 494 q 674 421 612 421 q 827 458 763 421 l 827 841 l 660 841 l 660 895 l 1086 895 l 1086 841 l 890 841 l 890 0 l 827 0 z "},"ॷ":{"ha":1065,"x_min":86,"x_max":1086,"o":"m 580 -398 q 291 -302 420 -398 l 315 -256 q 577 -344 431 -344 q 824 -252 723 -344 l 850 -296 q 728 -371 798 -345 q 580 -398 659 -398 m 580 -243 q 305 -145 428 -243 l 328 -98 q 577 -188 437 -188 q 812 -93 716 -188 l 837 -138 q 721 -216 788 -188 q 580 -243 655 -243 m 827 0 l 827 395 q 675 366 767 366 q 588 372 636 366 q 591 338 591 356 q 526 180 591 241 q 359 120 461 120 q 216 145 279 120 q 86 223 153 170 l 106 276 q 226 199 171 222 q 359 176 282 176 q 484 224 435 176 q 534 346 534 272 q 390 523 534 454 q 235 502 321 502 l 230 502 l 218 554 l 222 554 q 428 602 355 554 q 500 715 500 651 q 456 815 500 779 q 339 852 412 852 q 241 835 285 852 q 150 785 197 819 l 127 837 q 332 906 226 906 q 497 856 439 906 q 556 714 556 805 q 529 621 556 664 q 450 549 502 578 q 571 430 541 494 q 674 421 612 421 q 827 458 763 421 l 827 841 l 660 841 l 660 895 l 1086 895 l 1086 841 l 890 841 l 890 0 l 827 0 z "},"ॸ":{"ha":684,"x_min":-21,"x_max":705,"o":"m 556 323 q 519 429 556 390 q 404 468 481 468 q 235 433 328 468 l 235 346 q 211 318 235 318 q 124 372 178 318 q 88 429 88 407 q 121 459 88 449 l 172 475 l 172 841 l -21 841 l -21 895 l 705 895 l 705 841 l 235 841 l 235 494 q 407 524 333 524 q 558 467 505 524 q 610 322 610 410 q 517 75 610 197 l 466 98 q 556 323 556 215 z "},"ॹ":{"ha":1068,"x_min":-21,"x_max":1089,"o":"m 397 -187 q 386 -187 397 -187 q 364 -173 376 -187 q 352 -135 352 -159 q 364 -97 352 -110 q 397 -83 376 -83 q 430 -97 418 -83 q 442 -135 442 -110 q 430 -174 442 -160 q 397 -187 418 -187 m 543 -79 q 532 -79 543 -79 q 510 -65 522 -79 q 498 -27 498 -51 q 510 12 498 -2 q 543 25 522 25 q 576 12 564 25 q 588 -27 588 -2 q 576 -66 588 -52 q 543 -79 564 -79 m 239 -79 q 229 -79 239 -79 q 206 -65 218 -79 q 195 -27 195 -51 q 206 12 195 -2 q 239 25 218 25 q 272 12 261 25 q 284 -27 284 -2 q 272 -66 284 -52 q 239 -79 261 -79 m 830 0 l 830 569 l 473 569 q 586 467 543 529 q 629 334 629 404 q 575 194 629 249 q 428 140 522 140 q 71 424 240 140 l 107 468 q 423 196 268 196 q 535 235 496 196 q 574 342 574 275 q 510 476 574 409 q 342 574 446 542 l 342 622 l 830 622 l 830 841 l -21 841 l -21 895 l 1089 895 l 1089 841 l 892 841 l 892 0 l 830 0 z "},"ॺ":{"ha":848,"x_min":-21,"x_max":869,"o":"m 397 308 q 567 365 492 308 l 345 727 l 345 713 q 160 440 345 516 q 269 343 204 378 q 397 308 334 308 m 609 841 l 345 841 l 345 836 l 609 404 l 609 841 m 609 0 l 609 330 q 400 253 520 253 q 223 308 309 253 q 79 465 138 362 l 79 468 q 246 576 204 515 q 275 641 267 609 q 282 719 282 674 l 282 841 l -21 841 l -21 895 l 869 895 l 869 841 l 672 841 l 672 0 l 609 0 z "},"ॻ":{"ha":831,"x_min":-21,"x_max":852,"o":"m 593 0 l 593 841 l 270 841 l 270 339 q 264 318 270 324 q 241 312 258 312 q 172 370 223 312 q 120 449 120 428 q 152 473 120 473 l 207 473 l 207 841 l -21 841 l -21 895 l 852 895 l 852 841 l 655 841 l 655 -53 l 171 -53 l 171 0 l 593 0 z "},"ॼ":{"ha":1068,"x_min":-21,"x_max":1089,"o":"m 830 0 l 830 569 l 473 569 q 586 467 543 529 q 629 334 629 404 q 575 194 629 249 q 428 140 522 140 q 71 424 240 140 l 107 468 q 423 196 268 196 q 535 235 496 196 q 574 342 574 275 q 510 476 574 409 q 342 574 446 542 l 342 622 l 830 622 l 830 841 l -21 841 l -21 895 l 1089 895 l 1089 841 l 892 841 l 892 -53 l 136 -53 l 136 0 l 830 0 z "},"ॽ":{"ha":723,"x_min":151,"x_max":614,"o":"m 273 2 l 273 477 l 281 477 q 477 535 396 477 q 559 682 559 593 q 510 799 559 753 q 384 845 462 845 q 173 784 265 845 l 151 833 q 374 899 263 899 q 550 840 486 899 q 614 674 614 781 q 589 575 614 621 q 525 499 565 529 q 336 428 442 437 l 336 2 l 273 2 z "},"ॾ":{"ha":788,"x_min":-21,"x_max":809,"o":"m 683 -70 l 683 -124 l 157 -124 l 157 -70 l 683 -70 m 439 43 q 266 65 345 43 q 98 138 187 87 l 114 192 q 432 95 262 95 q 580 139 529 95 q 631 255 631 183 q 587 348 631 315 q 458 382 542 382 q 282 334 374 382 l 279 334 q 164 417 203 369 q 125 524 125 466 q 173 625 125 582 q 318 668 221 668 l 550 668 l 550 841 l -21 841 l -21 895 l 809 895 l 809 841 l 612 841 l 612 614 l 312 614 q 212 586 245 614 q 180 518 180 558 q 206 445 180 477 q 277 393 232 413 q 471 437 378 437 q 625 387 564 437 q 686 247 686 337 q 619 100 686 157 q 439 43 552 43 z "},"ॿ":{"ha":798,"x_min":-21,"x_max":819,"o":"m 352 251 q 473 278 415 251 l 216 574 q 151 447 151 530 q 206 308 151 364 q 352 251 262 251 m 354 607 q 267 596 303 607 l 520 305 q 560 336 540 317 l 560 565 q 354 607 451 607 m 560 0 l 560 265 q 359 198 475 198 q 169 272 243 198 q 94 456 94 346 q 162 607 94 551 q 336 664 230 664 q 560 622 443 664 l 560 841 l -21 841 l -21 895 l 819 895 l 819 841 l 622 841 l 622 -53 l 173 -53 l 173 0 l 560 0 z "},"​":{"ha":0,"x_min":0,"x_max":0,"o":""},"‌":{"ha":0,"x_min":-14,"x_max":14,"o":"m 14 -250 l -14 -250 l -14 1145 l 14 1145 l 14 -250 z "},"‍":{"ha":0,"x_min":-187,"x_max":187,"o":"m 14 -249 l -14 -249 l -14 918 l -166 770 l -187 791 l -20 952 l -185 1113 l -165 1133 l 0 973 l 165 1133 l 187 1112 l 21 951 l 187 791 l 165 771 l 14 918 l 14 -249 z "},"–":{"ha":816,"x_min":136,"x_max":680,"o":"m 680 359 l 136 359 l 136 411 l 680 411 l 680 359 z "},"—":{"ha":1463,"x_min":136,"x_max":1326,"o":"m 1326 359 l 136 359 l 136 411 l 1326 411 l 1326 359 z "},"―":{"ha":1294,"x_min":136,"x_max":1326,"o":"m 1326 359 l 136 359 l 136 411 l 1326 411 l 1326 359 z "},"‘":{"ha":371,"x_min":98,"x_max":249,"o":"m 180 607 l 106 607 l 98 620 q 149 775 117 684 q 209 924 181 866 l 249 924 q 210 767 232 864 q 180 607 188 671 z "},"’":{"ha":348,"x_min":98,"x_max":249,"o":"m 168 924 l 242 924 l 249 911 q 140 607 202 742 l 98 607 q 138 765 118 674 q 168 924 158 856 z "},"“":{"ha":572,"x_min":98,"x_max":450,"o":"m 298 620 q 409 924 350 793 l 450 924 q 409 761 430 860 q 380 607 388 661 l 306 607 l 298 620 m 180 607 l 106 607 l 98 620 q 149 775 117 684 q 209 924 181 866 l 249 924 q 210 767 232 864 q 180 607 188 671 z "},"”":{"ha":548,"x_min":98,"x_max":450,"o":"m 168 924 l 242 924 l 249 911 q 140 607 202 742 l 98 607 q 138 765 118 674 q 168 924 158 856 m 298 607 q 369 924 343 756 l 442 924 l 450 911 q 399 753 430 840 q 341 607 367 666 l 298 607 z "},"•":{"ha":487,"x_min":146,"x_max":341,"o":"m 341 473 q 341 446 341 473 q 315 389 341 419 q 243 358 289 358 q 172 388 198 358 q 146 473 146 418 q 171 557 146 528 q 243 586 197 586 q 315 557 289 586 q 341 473 341 527 z "},"…":{"ha":926,"x_min":103,"x_max":824,"o":"m 153 -13 q 103 49 103 -13 q 153 111 103 111 q 205 49 205 111 q 153 -13 205 -13 m 462 -13 q 411 49 411 -13 q 462 111 411 111 q 514 49 514 111 q 462 -13 514 -13 m 772 -13 q 721 49 721 -13 q 772 111 721 111 q 824 49 824 111 q 772 -13 824 -13 z "},"₹":{"ha":762,"x_min":106,"x_max":663,"o":"m 106 568 l 106 621 l 461 621 l 461 626 q 389 776 461 710 q 224 841 317 841 l 106 841 l 106 895 l 663 895 l 663 841 l 390 841 q 482 747 448 805 q 517 621 517 690 l 663 621 l 663 568 l 512 568 q 421 413 495 475 q 234 338 346 351 l 503 5 l 504 0 l 439 0 l 166 336 l 168 383 q 364 439 292 391 q 455 568 437 487 l 106 568 z "},"−":{"ha":739,"x_min":70,"x_max":669,"o":"m 669 431 l 70 431 l 70 483 l 669 483 l 669 431 z "},"◌":{"ha":733,"x_min":95,"x_max":657,"o":"m 375 206 q 393 185 393 206 q 375 164 393 164 q 358 185 358 164 q 375 206 358 206 m 163 260 q 163 271 163 260 q 180 282 163 282 q 198 260 198 282 q 180 239 198 239 q 163 260 163 239 m 553 260 q 553 271 553 260 q 571 282 553 282 q 588 260 588 282 q 571 239 588 239 q 553 260 553 239 m 638 469 q 657 448 657 469 q 638 427 657 427 q 620 448 620 427 q 638 469 620 469 m 95 448 q 95 459 95 448 q 112 469 95 469 q 130 448 130 469 q 112 427 130 427 q 95 448 95 427 m 163 636 q 163 647 163 636 q 180 657 163 657 q 198 636 198 657 q 180 614 198 614 q 163 636 163 614 m 553 636 q 553 647 553 636 q 571 657 553 657 q 588 636 588 657 q 571 614 588 614 q 553 636 553 614 m 375 732 q 393 711 393 732 q 375 690 393 690 q 358 711 358 690 q 375 732 358 732 z "}}}
